# Blender 5.0.1
# www.blender.org
mtllib 448.mtl
o bmyst
v -0.005341 -0.112838 -0.204638
v -0.006982 -0.121130 -0.211693
v -0.030815 0.022965 -0.181403
v -0.030815 0.022965 -0.181403
v -0.030815 0.022965 -0.181403
v 0.008271 0.036889 -0.222951
v -0.046563 -0.092931 -0.173926
v -0.048997 -0.150716 -0.102760
v -0.049188 -0.085480 -0.172254
v -0.049188 -0.085480 -0.172254
v -0.049188 -0.085480 -0.172254
v -0.053689 0.115268 -0.130956
v -0.041217 0.100305 -0.127835
v -0.041217 0.100305 -0.127835
v -0.015222 -0.192101 0.110525
v -0.053884 -0.168356 0.003098
v -0.053884 -0.168356 0.003098
v -0.053884 -0.168356 0.003098
v -0.051976 -0.169439 0.097800
v -0.062066 0.153744 -0.000381
v -0.050252 0.138994 0.000908
v -0.050252 0.138994 0.000908
v -0.143574 0.131275 -0.000704
v -0.143574 0.131275 -0.000704
v -0.143574 0.131275 -0.000704
v -0.143574 0.131275 -0.000704
v -0.143574 0.131275 -0.000704
v -0.143574 0.131275 -0.000704
v -0.149003 0.123002 -0.043527
v -0.149003 0.123002 -0.043527
v -0.149003 0.123002 -0.043527
v -0.149003 0.123002 -0.043527
v -0.133808 0.083392 -0.137468
v -0.133808 0.083392 -0.137468
v -0.133808 0.083392 -0.137468
v -0.120976 0.022429 -0.198050
v -0.121542 0.022596 -0.188481
v -0.120976 0.022429 -0.198050
v 0.564269 -0.049064 -0.170729
v 0.564269 -0.049064 -0.170729
v 0.612116 -0.010424 -0.114697
v 0.641283 -0.112608 -0.072839
v 0.638929 -0.109331 -0.071704
v 0.569507 -0.101632 -0.110060
v 0.643098 -0.154081 -0.000454
v 0.382945 -0.126979 -0.183186
v 0.502172 -0.113739 -0.202159
v 0.586998 0.043060 -0.078473
v 0.516205 -0.007923 -0.219310
v 0.382556 0.130456 -0.079932
v 0.339291 -0.086947 -0.185984
v 0.288204 -0.040437 -0.188683
v 0.355105 0.008433 -0.198004
v 0.352721 0.000442 -0.195601
v 0.449235 -0.177539 -0.020323
v 0.574096 0.058036 0.002876
v 0.391718 0.044144 -0.169194
v 0.391880 0.044580 -0.169302
v 0.286230 -0.042001 -0.191811
v 0.054412 -0.059992 -0.201366
v 0.054412 -0.059992 -0.201366
v 0.619501 -0.037059 -0.062016
v 0.627610 -0.041429 -0.053322
v 0.614725 -0.082968 0.000752
v 0.614725 -0.082968 0.000752
v 0.614725 -0.082968 0.000752
v 0.614725 -0.082968 0.000752
v 0.621550 -0.033843 -0.059970
v 0.573071 -0.004728 -0.082481
v 0.565800 0.029902 0.008836
v 0.607313 0.001608 -0.063514
v 0.565773 0.029668 -0.008889
v 0.481263 -0.122969 -0.196607
v 0.528850 -0.101959 -0.214986
v 0.544209 -0.048236 -0.225183
v 0.547580 -0.045759 -0.229284
v 0.544209 -0.048236 -0.225183
v 0.389043 -0.125227 -0.183536
v 0.347458 -0.114634 -0.213816
v 0.338868 -0.087543 -0.187514
v 0.356873 0.010739 -0.200543
v 0.364895 -0.001063 -0.201883
v 0.515129 -0.008088 -0.218922
v 0.225844 -0.050723 -0.237794
v 0.290398 -0.025949 -0.262578
v 0.252083 -0.015319 -0.274847
v 0.247732 -0.124671 -0.282607
v 0.252228 -0.109469 -0.291228
v 0.316118 -0.050994 -0.321584
v 0.275130 -0.012602 -0.305200
v -0.032206 -0.085167 -0.437482
v -0.024989 -0.095169 -0.361243
v 0.108405 -0.116628 -0.324947
v -0.036768 -0.080715 -0.381957
v -0.041825 -0.000304 -0.376897
v -0.004862 0.008872 -0.374770
v -0.023624 -0.012224 -0.420401
v -0.030190 -0.031156 -0.405260
v -0.029020 -0.012686 -0.371760
v -0.029020 -0.012686 -0.371760
v -0.029020 -0.012686 -0.371760
v -0.040971 -0.038674 -0.374690
v -0.030756 -0.080255 -0.383608
v -0.042288 -0.089413 -0.371125
v -0.030756 -0.080255 -0.383608
v -0.036850 -0.074990 -0.382412
v -0.112921 -0.000579 -0.410547
v -0.111317 -0.093089 -0.441404
v -0.140812 -0.090584 -0.445668
v -0.168997 0.000745 -0.425651
v -0.117425 0.004890 -0.428160
v -0.139705 0.000182 -0.433841
v -0.117436 0.001849 -0.427396
v -0.185634 -0.001311 -0.420740
v -0.080035 0.008757 -0.392191
v -0.102920 0.010576 -0.420500
v -0.101662 0.007638 -0.384130
v -0.146123 0.007054 -0.399294
v -0.150069 0.006394 -0.393047
v -0.149359 0.006362 -0.396063
v -0.134812 -0.012757 -0.382561
v -0.139611 -0.009025 -0.378532
v -0.140722 0.001947 -0.408038
v -0.188900 -0.084871 -0.429818
v -0.175376 -0.083640 -0.429301
v -0.216749 -0.026757 -0.418329
v -0.212288 -0.003907 -0.410987
v -0.180822 -0.076614 -0.424365
v -0.207603 -0.033754 -0.409984
v 0.606011 0.000976 0.067577
v 0.606011 0.000976 0.067577
v 0.606011 0.000976 0.067577
v 0.606011 0.000976 0.067577
v 0.606011 0.000976 0.067577
v 0.614907 -0.063057 0.040233
v 0.632195 -0.047412 0.046083
v 0.617227 -0.033240 0.061565
v -0.052911 0.109369 0.142732
v 0.007208 0.033207 0.225225
v -0.042316 0.100303 0.127550
v -0.042316 0.100303 0.127550
v -0.046266 0.022966 0.188723
v -0.046266 0.022966 0.188723
v -0.046266 0.022966 0.188723
v -0.051423 -0.165260 0.102721
v -0.047861 -0.086098 0.183185
v -0.044682 -0.090373 0.191497
v -0.047861 -0.086098 0.183185
v -0.047861 -0.086098 0.183185
v -0.132146 0.030125 0.209826
v -0.133275 0.030514 0.205219
v -0.133275 0.030514 0.205219
v -0.150414 0.125466 0.063200
v -0.150414 0.125466 0.063200
v -0.154187 0.091774 0.149911
v -0.153863 0.087306 0.152515
v 0.021139 -0.075692 0.222271
v 0.025950 -0.078877 0.225436
v 0.634100 0.103901 -0.005296
v 0.645679 0.099860 0.000253
v 0.637057 0.103637 0.003989
v 0.645801 0.100221 0.001192
v 0.712453 0.122418 -0.000791
v 0.694425 0.116684 -0.001197
v 0.689567 0.029659 0.059495
v 0.706687 0.016790 0.080473
v 0.710694 0.017778 0.070146
v 0.708578 0.018032 0.069149
v 0.714405 0.018231 0.057381
v 0.704355 -0.001917 0.074251
v 0.722205 -0.003641 0.077816
v 0.708403 -0.007743 0.076903
v 0.705711 -0.006783 0.068543
v 0.765471 -0.010787 0.047072
v 0.705711 -0.006783 0.068543
v 0.761694 0.082397 0.061082
v 0.625290 0.079235 -0.011150
v 0.640588 0.085896 0.000142
v 0.688059 0.103289 0.036646
v 0.637232 0.055421 0.000567
v 0.637944 0.042566 -0.005424
v 0.770350 0.113431 0.000986
v 0.764595 0.092566 0.015016
v 0.741402 0.122892 -0.003459
v 0.737271 0.112806 0.018647
v 0.690090 0.102077 0.032804
v 0.683678 0.095556 -0.000566
v 0.682790 0.120856 -0.000111
v 0.679424 0.013399 0.060852
v 0.679424 0.013399 0.060852
v 0.780272 0.123082 0.001815
v 0.780272 0.123082 0.001815
v 0.780533 0.120569 0.000772
v 0.741256 0.124826 -0.000104
v 0.756008 -0.023119 0.081068
v 0.762524 -0.001169 0.081139
v 0.772054 0.099581 0.051600
v 0.781918 0.102713 0.046650
v 0.762520 -0.001239 0.080326
v 0.762520 -0.001239 0.080326
v 0.762520 -0.001239 0.080326
v 0.751995 -0.029515 0.088474
v 0.750957 -0.028931 0.083999
v 0.752815 -0.027900 0.082091
v 0.743394 -0.067708 0.047496
v 0.739893 -0.088664 0.004434
v 0.741969 -0.078835 0.001745
v 0.741969 -0.078835 0.001745
v 0.717078 -0.040067 -0.003822
v 0.712969 -0.054938 0.045477
v 0.712969 -0.054938 0.045477
v 0.706526 -0.068106 0.001714
v 0.705894 -0.062599 0.002427
v 0.381582 -0.126159 0.178787
v 0.469643 0.096307 0.105410
v 0.639037 -0.113650 0.070790
v 0.637131 -0.111263 0.068918
v 0.308139 0.010208 0.184870
v 0.354257 -0.085802 0.180428
v 0.295714 -0.055940 0.182075
v 0.621193 -0.005879 0.109034
v 0.638625 -0.005294 0.097964
v 0.502138 -0.107412 0.193453
v 0.545042 -0.047589 0.228119
v 0.564268 -0.049068 0.167127
v 0.564268 -0.049068 0.167127
v 0.531932 -0.127005 0.108222
v 0.471212 0.015001 0.212584
v 0.295767 -0.061320 0.190795
v 0.481280 -0.127273 0.190224
v 0.483496 0.005468 0.204042
v 0.409097 0.021377 0.211430
v 0.398911 0.018269 0.207772
v 0.547704 -0.046815 0.232968
v 0.544208 -0.048240 0.228973
v 0.234941 -0.126945 0.296216
v 0.249995 -0.118560 0.291678
v 0.264217 -0.004563 0.276684
v 0.196281 -0.020950 0.304039
v 0.311435 -0.009229 0.300633
v 0.251469 -0.052808 0.358566
v 0.207252 -0.057833 0.259549
v -0.014002 -0.012656 0.433222
v -0.019955 -0.009268 0.386849
v -0.005187 0.007188 0.386612
v -0.022806 -0.081464 0.451016
v -0.005463 -0.100283 0.362739
v -0.015196 -0.084015 0.399683
v 0.089881 -0.119448 0.341039
v 0.264024 -0.003687 0.278582
v -0.025266 -0.080254 0.396032
v -0.025063 -0.084817 0.392755
v -0.027552 -0.075636 0.395817
v -0.019526 -0.012685 0.384184
v -0.020868 -0.027257 0.406188
v 0.364652 -0.015882 0.193419
v 0.364915 -0.018738 0.194938
v 0.355358 -0.079798 0.183225
v 0.533558 -0.101168 0.210726
v 0.387699 -0.126591 0.179664
v 0.387699 -0.126591 0.179664
v 0.364230 -0.016860 0.193070
v 0.681790 0.036114 -0.057388
v 0.680488 0.040371 -0.063538
v 0.710744 0.017345 -0.069027
v 0.710744 0.017345 -0.069027
v 0.710744 0.017345 -0.069027
v 0.710744 0.017345 -0.069027
v 0.703720 -0.001424 -0.066871
v 0.707495 -0.007803 -0.075758
v 0.706113 -0.002526 -0.075890
v 0.705761 -0.006688 -0.067448
v 0.705761 -0.006688 -0.067448
v 0.705920 0.002875 -0.072578
v 0.705761 -0.006688 -0.067448
v 0.705761 -0.006688 -0.067448
v 0.769867 0.062005 -0.068535
v 0.689655 0.104661 -0.033895
v 0.765755 0.096708 -0.013420
v 0.764595 0.092566 -0.014080
v 0.762503 0.084842 -0.056729
v 0.727722 0.131871 0.000011
v 0.690707 0.103975 -0.030940
v 0.679488 0.013522 -0.059771
v 0.761591 0.002378 -0.076316
v 0.784030 0.107046 -0.056351
v 0.778538 0.097355 -0.057022
v 0.761573 -0.002054 -0.075924
v 0.761573 -0.002054 -0.075924
v 0.761573 -0.002054 -0.075924
v 0.761573 -0.002054 -0.075924
v 0.748390 -0.030698 -0.097621
v 0.747719 -0.030251 -0.076648
v 0.748840 -0.029828 -0.076191
v 0.717691 -0.054938 -0.044207
v 0.699541 0.116150 -0.000715
v 0.696019 0.111943 0.001030
v 0.692259 0.113976 0.013533
v 0.692765 0.115524 -0.009178
v -0.118069 -0.091413 0.450439
v -0.146197 -0.092344 0.454998
v -0.112762 -0.000874 0.417995
v -0.117412 0.003949 0.435352
v -0.117437 0.001850 0.434736
v -0.208088 -0.001917 0.419055
v -0.168273 0.001213 0.434120
v -0.170643 -0.003936 0.454564
v -0.197402 -0.011918 0.414010
v -0.103612 0.010290 0.427869
v -0.143522 0.000533 0.411528
v -0.134166 -0.012451 0.389595
v -0.139146 -0.008909 0.383986
v -0.173846 -0.085595 0.440308
v -0.172731 -0.084445 0.434866
v -0.202611 -0.074905 0.420445
v -0.184955 -0.073301 0.429546
v -0.185023 -0.072468 0.428653
v -0.146122 0.007059 0.406633
v -0.216750 -0.026756 0.425668
v 0.693938 0.093389 0.002614
v 0.693938 0.093389 0.002614
v 0.693938 0.093389 0.002614
v 0.693938 0.093389 0.002614
v 0.744855 -0.067147 -0.044052
v 0.749039 -0.032858 -0.071743
v 0.584751 -0.066346 0.114048
v 0.584751 -0.066346 0.114048
v 0.345837 -0.127976 0.235276
v 0.345837 -0.127976 0.235276
v -0.163016 -0.161072 0.113035
v -0.450025 0.075644 0.098416
v -0.242444 0.002489 0.230059
v -0.450549 0.084433 0.187357
v -0.297575 0.016017 0.014472
v -0.297575 0.016017 0.014472
v -0.297575 0.016017 0.014472
v -1.005720 0.039283 0.115635
v -1.004659 0.055103 0.116995
v -1.004613 -0.046187 0.254063
v -1.006730 0.054555 0.247818
v -1.005213 -0.021164 0.130417
v -1.005153 -0.029344 0.250942
v -0.921041 0.063673 0.141392
v -0.921041 0.063673 0.141392
v -0.917161 0.053474 0.191518
v -0.926420 0.049665 0.209660
v -0.855538 -0.027542 0.134522
v -0.855538 -0.027542 0.134522
v -0.855538 -0.027542 0.134522
v -0.852498 -0.050573 0.238499
v -0.852498 -0.050573 0.238499
v -0.852498 -0.050573 0.238499
v -0.999650 -0.142752 0.162910
v -1.000825 -0.108551 0.130255
v -1.002318 -0.118044 0.226000
v -0.867176 -0.144257 0.137004
v -0.873219 -0.127767 0.139066
v -0.873219 -0.127767 0.139066
v -0.873219 -0.127767 0.139066
v -0.978736 -0.149373 0.148725
v -0.976858 -0.134129 0.132461
v -0.985822 -0.150266 0.223756
v -0.985660 -0.133404 0.233447
v -1.000673 0.162667 0.133628
v -1.002006 0.153131 0.139266
v -1.004167 0.167541 0.205169
v -1.004317 0.155905 0.224380
v -0.965737 0.161435 0.218985
v -0.806622 -0.019503 0.061188
v -0.806622 -0.019503 0.061188
v -0.713813 -0.049871 0.275948
v -0.710493 -0.050410 0.277690
v -0.778921 -0.156613 0.119682
v -0.538769 -0.152542 0.200747
v -0.477048 -0.057574 0.046198
v -0.469933 -0.064534 0.057322
v -0.476686 -0.035407 0.237791
v -0.417338 -0.033768 0.237155
v -0.476715 -0.028460 0.260033
v -0.427211 -0.158165 0.093275
v -0.429973 -0.048656 0.043089
v -0.821467 0.102029 0.190364
v -0.999462 -0.145878 0.173344
v -0.286500 -0.028690 0.005348
v -0.286513 -0.028677 0.007215
v -0.286513 -0.028677 0.007215
v -0.286513 -0.028677 0.007215
v -0.286502 -0.028639 0.005355
v -0.167946 -0.176179 0.005918
v -0.185960 -0.156134 0.007920
v -0.185960 -0.156134 0.007920
v -0.185960 -0.156134 0.007920
v -0.936974 -0.033683 0.234905
v -0.935955 -0.081047 0.254286
v -0.936974 -0.033683 0.234905
v -0.933946 -0.120045 0.232444
v -0.933946 -0.120045 0.232444
v -0.937227 -0.121133 0.145432
v -0.935535 -0.119356 0.131256
v -0.938937 -0.147393 0.173343
v -0.938937 -0.147393 0.173343
v -0.290142 0.093308 -0.033875
v -0.200621 0.001026 -0.211723
v -0.200621 0.001026 -0.211723
v -0.341797 0.097992 -0.173194
v -0.293190 0.016359 -0.000400
v -0.293190 0.016359 -0.000400
v -0.293190 0.016359 -0.000400
v -0.293190 0.016359 -0.000400
v -0.634815 -0.007171 -0.070319
v -0.634815 -0.007171 -0.070319
v -0.763252 -0.036251 -0.264452
v -0.813337 -0.037858 -0.270847
v -0.789913 -0.166102 -0.104338
v -0.713074 -0.130933 -0.253652
v -0.475759 -0.075074 -0.044737
v -0.480765 -0.067870 -0.039048
v -0.446348 -0.029067 -0.231373
v -0.423911 -0.024654 -0.237884
v -0.413711 -0.139105 -0.104284
v -0.481676 -0.095758 -0.220538
v -0.429736 -0.061763 -0.039089
v -0.429736 -0.061763 -0.039089
v -0.429736 -0.061763 -0.039089
v -0.658597 0.067785 -0.161468
v -0.286513 -0.028670 0.003479
v -0.286513 -0.028670 0.003479
v -0.286513 -0.028670 0.003479
v -0.286513 -0.028670 0.003479
v -0.286513 -0.028670 0.003479
v -1.003163 0.172211 0.181901
v -0.841046 0.053857 0.253669
v -0.841046 0.053857 0.253669
v -0.850091 0.045116 0.077951
v -0.850661 0.044555 0.077246
v -0.977247 -0.028958 0.262438
v -0.978405 -0.030272 0.254910
v -0.921205 0.075847 0.140668
v -0.921205 0.075847 0.128094
v -0.921205 0.075847 0.128094
v -0.922002 0.068598 0.234451
v -0.927837 0.056008 0.227214
v -0.922002 0.068598 0.234451
v -0.966445 -0.044795 0.109363
v -0.966445 -0.044795 0.109363
v -0.966445 -0.044795 0.109363
v -0.978956 -0.033554 0.252876
v -1.005954 0.048723 -0.109637
v -1.004659 0.055103 -0.105954
v -1.005152 -0.029344 -0.240094
v -1.006884 0.055254 -0.247541
v -1.006730 0.072008 -0.240941
v -1.005212 -0.017925 -0.119569
v -0.920707 0.060499 -0.130544
v -0.920707 0.060499 -0.130544
v -0.852497 -0.050576 -0.227650
v -0.852497 -0.050576 -0.227650
v -0.852497 -0.050576 -0.227650
v -0.855538 -0.024303 -0.123673
v -0.855538 -0.024303 -0.123673
v -0.855538 -0.024303 -0.123673
v -0.928999 0.045330 -0.172382
v -0.929575 0.048700 -0.205692
v -1.000185 0.164032 -0.124486
v -1.002005 0.153131 -0.128419
v -1.004157 0.167966 -0.194115
v -1.003163 0.172211 -0.171053
v -0.966759 0.167111 -0.191834
v -1.004316 0.155904 -0.213532
v -0.935314 -0.033683 -0.237442
v -0.935314 -0.033683 -0.237442
v -0.935314 -0.033683 -0.237442
v -1.000825 -0.108551 -0.119407
v -1.000825 -0.108551 -0.119407
v -1.002317 -0.118045 -0.215152
v -1.002317 -0.118045 -0.215152
v -0.936955 -0.139848 -0.184481
v -0.933945 -0.115863 -0.218785
v -0.933945 -0.115863 -0.218785
v -0.868402 -0.123709 -0.133833
v -0.873218 -0.127770 -0.128218
v -0.873218 -0.127770 -0.128218
v -0.921205 0.059522 -0.121071
v -0.921205 0.059522 -0.121071
v -0.921205 0.059522 -0.121071
v -0.921205 0.059522 -0.121071
v -0.921205 0.059522 -0.121071
v -0.821648 0.105157 -0.163367
v -0.821648 0.105157 -0.163367
v -0.829754 0.044555 -0.104941
v -0.829754 0.044555 -0.104941
v -0.778655 0.053857 -0.244991
v -0.922001 0.043082 -0.234523
v -0.975996 -0.057272 -0.258719
v -0.922001 0.043082 -0.234523
v -0.984244 -0.154840 -0.167442
v -0.986718 -0.126902 -0.212272
v -0.974307 -0.045321 -0.094999
v -0.982333 -0.117413 -0.113807
v -0.801612 -0.061207 -0.074180
v -0.801612 -0.061207 -0.074180
v -0.970815 -0.044798 -0.110850
v -0.999462 -0.145878 -0.162496
v -0.999462 -0.145878 -0.162496
v -0.935534 -0.119356 -0.120407
v -0.937319 -0.116377 -0.123635
v -0.972431 -0.061034 -0.242810
v -0.972431 -0.061034 -0.242810
v -0.981278 -0.158238 0.177419
v -0.931390 0.103736 0.182230
v -0.981772 -0.154957 -0.161418
v -0.928866 0.091395 -0.178111
v -0.928866 0.091395 -0.178111
v -0.849780 0.079146 -0.170652
v -0.849780 0.079146 -0.170652
v -0.419477 0.087314 -0.097534
v -0.908774 0.058309 -0.177677
v -0.256533 0.061556 0.006566
v -0.256172 0.062088 0.006715
v -0.256269 0.062784 0.012739
v -0.256269 0.062784 0.012739
v -0.256269 0.062784 0.012739
v -0.256549 0.061095 0.000682
v -0.256549 0.061095 0.000682
v -0.256549 0.061095 0.000682
v 0.752825 -0.028423 0.076689
v 0.752825 -0.028423 0.076689
v 0.732516 -0.027094 0.088622
v 0.732516 -0.027094 0.088622
v 0.732516 -0.027094 0.088622
v 0.732516 -0.027094 0.088622
v 0.747445 -0.031484 -0.071091
v 0.747445 -0.031484 -0.071091
v 0.727457 -0.024751 -0.085313
v 0.727457 -0.024751 -0.085313
v 0.632224 -0.008791 -0.099417
v 0.640591 -0.005538 -0.103292
v 0.629140 -0.006131 0.088672
v 0.638193 -0.053397 0.093522
v 0.638985 -0.054179 0.094497
v 0.639830 -0.148458 -0.000164
v 0.639830 -0.148458 -0.000164
v 0.882957 0.069549 -0.050072
v 0.858933 -0.029070 -0.067083
v 0.760597 0.145931 0.005145
v 0.762161 0.148910 0.005825
v 0.712117 -0.075005 -0.061678
v 0.731541 -0.021868 -0.102618
v 0.756502 0.124968 -0.069136
v 0.873217 0.102808 0.005779
v 0.873710 0.103201 0.004415
v 0.861843 -0.075180 0.002852
v 0.851003 -0.073866 0.010597
v 0.909511 0.041150 0.006120
v 0.908672 0.038931 0.004240
v 0.705202 -0.094433 -0.001645
v 0.704636 -0.091413 -0.001117
v 0.882641 0.070161 0.058626
v 0.840636 -0.040744 0.079086
v 0.759019 0.131321 0.074887
v 0.706471 -0.081569 0.065477
v 0.763340 0.151236 0.004986
v 0.744202 0.036909 -0.099056
v 0.746621 0.122041 -0.062105
v 0.714394 -0.080353 -0.065625
v 0.719917 -0.036117 -0.089185
v 0.707553 -0.100916 -0.006848
v 0.741009 0.058921 0.108086
v 0.743050 0.059413 0.108309
v 0.756172 0.130140 0.073192
v 0.712819 -0.093609 0.069937
v 0.720742 -0.035424 0.107561
v 0.720560 -0.039384 0.105651
vn -0.7012 0.1004 0.7059
vn -0.6505 0.0486 -0.7580
vn -0.6123 -0.1364 0.7787
vn -0.6724 -0.1152 -0.7312
vn -0.5877 0.0454 0.8078
vn -0.6474 0.1537 -0.7465
vn -0.5662 0.5615 0.6034
vn -0.5695 0.5838 -0.5787
vn -0.7395 -0.0859 -0.6676
vn -0.7177 -0.0685 0.6930
vn -0.5767 0.8163 -0.0318
vn -0.5767 0.8163 0.0318
vn -0.6281 -0.3091 -0.7141
vn -0.6161 -0.3134 0.7226
vn -0.5705 0.5309 -0.6266
vn -0.5642 0.5186 0.6424
vn -0.6395 -0.4601 0.6159
vn -0.6308 -0.5010 -0.5925
vn -0.5952 -0.7990 -0.0861
vn -0.5824 -0.8097 0.0720
vn -0.7421 0.6011 0.2966
vn -0.8188 -0.1009 0.5652
vn 0.4157 0.7172 0.5593
vn 0.5242 0.7701 -0.3636
vn 0.5676 0.4403 -0.6957
vn -0.6686 0.6447 -0.3705
vn 0.6542 0.6881 -0.3139
vn 0.5082 0.4246 0.7493
vn -0.7431 0.2231 0.6308
vn -0.6862 -0.7258 -0.0487
vn -0.7152 -0.4447 0.5392
vn 0.0862 -0.0313 -0.9958
vn -0.6746 -0.4730 -0.5667
vn 0.0171 0.3834 -0.9234
vn 0.0492 -0.6882 -0.7239
vn -0.6457 -0.7418 -0.1812
vn -0.6943 -0.7188 0.0356
vn -0.7963 0.1308 -0.5906
vn -0.8356 -0.3417 -0.4302
vn -0.7923 -0.1120 0.5997
vn -0.6801 -0.3912 -0.6200
vn -0.3169 -0.9339 0.1652
vn 0.2760 -0.9177 0.2857
vn -0.5668 -0.3397 0.7505
vn 0.0853 -0.3229 0.9426
vn -0.6309 -0.5009 -0.5925
vn 0.0758 -0.6050 -0.7926
vn -0.7152 0.0728 -0.6951
vn -0.6267 -0.3523 0.6951
vn 0.1412 -0.7964 0.5880
vn 0.1052 -0.1512 0.9829
vn 0.4650 -0.7863 -0.4069
vn -0.4373 0.6114 0.6595
vn -0.5333 0.5156 -0.6707
vn 0.6661 0.3809 -0.6413
vn 0.6325 0.4273 -0.6460
vn 0.6222 0.4373 0.6493
vn -0.5105 0.8528 -0.1099
vn -0.5040 0.5748 0.6447
vn -0.5090 0.8491 0.1410
vn 0.7865 0.3156 0.5309
vn -0.4771 0.6323 -0.6104
vn 0.1449 -0.8503 -0.5060
vn -0.5396 0.0009 0.8419
vn -0.3427 -0.8630 -0.3711
vn -0.0328 -0.8891 0.4566
vn -0.0641 -0.5649 0.8227
vn -0.7082 0.1239 0.6950
vn 0.0839 -0.8578 0.5071
vn -0.6298 -0.0477 -0.7753
vn -0.3114 -0.3429 -0.8863
vn -0.6652 -0.5876 -0.4606
vn -0.7801 -0.0456 -0.6240
vn 0.0745 -0.6577 -0.7496
vn 0.0356 -0.9978 -0.0564
vn 0.0289 -0.4264 -0.9041
vn 0.1738 -0.7647 -0.6205
vn 0.1329 -0.9682 -0.2118
vn 0.0002 -0.9412 0.3378
vn 0.1675 -0.9018 -0.3983
vn -0.5768 0.7042 -0.4139
vn 0.1035 0.4837 -0.8691
vn 0.9090 0.4168 0.0019
vn 0.8473 0.5295 -0.0414
vn 0.2412 -0.6097 0.7551
vn 0.1055 -0.9864 0.1257
vn 0.4156 -0.7611 0.4981
vn 0.0486 -0.5618 0.8259
vn 0.4641 0.0707 0.8830
vn 0.0933 -0.0288 0.9952
vn -0.7468 0.2473 0.6174
vn -0.0781 0.5437 0.8357
vn -0.3887 0.6400 0.6628
vn 0.0273 -0.3178 -0.9477
vn 0.5620 -0.1774 -0.8079
vn -0.7555 0.3909 0.5257
vn 0.0809 0.9911 0.1056
vn 0.0872 0.5828 -0.8079
vn 0.3656 0.4089 -0.8361
vn 0.1722 0.4428 -0.8799
vn 0.7518 0.5696 0.3322
vn 0.1551 0.2715 0.9499
vn 0.4116 0.2392 0.8794
vn -0.4750 0.8713 -0.1232
vn -0.2417 0.9690 -0.0510
vn -0.4928 0.5370 -0.6846
vn -0.3887 0.6400 0.6629
vn 0.6170 0.4281 0.6603
vn 0.8478 0.5297 -0.0257
vn 0.8444 0.5329 -0.0551
vn 0.8731 0.4759 0.1055
vn 0.7617 0.5009 -0.4109
vn 0.9087 0.4158 0.0364
vn 0.1216 0.0224 0.9923
vn 0.1299 -0.7821 0.6095
vn 0.8478 0.5297 -0.0256
vn 0.6356 -0.1185 0.7628
vn -0.0947 -0.0439 0.9945
vn 0.0837 0.6119 0.7865
vn -0.4598 0.7463 0.4812
vn -0.0682 0.2341 0.9698
vn 0.0355 0.2987 0.9537
vn 0.5224 0.0223 -0.8524
vn -0.1042 -0.8343 -0.5415
vn -0.0551 -0.0673 0.9962
vn -0.3886 0.6400 0.6629
vn -0.0781 0.5437 0.8356
vn -0.0456 -0.0221 -0.9987
vn -0.4180 0.2303 -0.8788
vn -0.3744 0.9196 -0.1186
vn 0.0997 0.5867 -0.8036
vn -0.2481 0.9652 0.0827
vn 0.0918 0.1616 -0.9826
vn -0.2556 0.0568 -0.9651
vn -0.2481 0.9652 0.0828
vn 0.0877 0.0155 0.9960
vn -0.3129 0.0280 -0.9494
vn 0.0592 -0.8310 0.5532
vn -0.0247 -0.9793 0.2010
vn 0.0604 0.9982 0.0002
vn 0.0473 0.4742 0.8792
vn 0.0130 0.4334 0.9011
vn -0.1753 -0.0000 -0.9845
vn -0.1439 0.0287 -0.9892
vn 0.1370 -0.6008 -0.7876
vn 0.0461 0.8807 0.4715
vn -0.0037 0.8579 -0.5137
vn -0.0570 -0.0495 0.9971
vn -0.0979 -0.1067 0.9895
vn -0.0839 -0.8676 -0.4902
vn -0.1766 0.7919 -0.5845
vn 0.0801 0.1516 -0.9852
vn 0.0740 0.0489 0.9961
vn 0.1059 0.1070 -0.9886
vn -0.2259 0.8345 0.5025
vn 0.0998 -0.0294 0.9946
vn -0.0548 -0.1813 0.9819
vn -0.1943 -0.1916 0.9621
vn -0.3238 0.7757 0.5417
vn -0.6693 -0.1853 -0.7195
vn -0.6557 -0.2811 0.7007
vn 0.0183 -0.6558 -0.7548
vn 0.0829 -0.5563 0.8268
vn -0.0570 -0.9819 -0.1809
vn 0.0253 -0.9555 0.2940
vn -0.2993 0.2262 -0.9270
vn -0.2416 0.1663 -0.9560
vn -0.6838 -0.1664 -0.7104
vn -0.1966 -0.0222 -0.9802
vn -0.2917 0.2014 0.9351
vn -0.7014 -0.2150 0.6796
vn -0.2917 0.2013 0.9351
vn -0.1993 -0.1873 0.9619
vn -0.3176 0.2844 0.9046
vn 0.1248 0.2429 0.9620
vn 0.1565 0.0761 -0.9847
vn 0.2654 0.2824 0.9219
vn -0.6962 -0.2309 0.6797
vn -0.2013 -0.9765 -0.0769
vn 0.3414 0.3516 -0.8717
vn -0.5922 0.5761 -0.5634
vn -0.2416 0.1664 -0.9560
vn -0.5541 0.4877 -0.6746
vn -0.6838 -0.1665 -0.7105
vn -0.6320 0.5895 0.5031
vn -0.3319 0.7688 0.5466
vn -0.2916 0.2013 0.9351
vn -0.7015 -0.2149 0.6795
vn -0.1520 -0.9846 -0.0866
vn 0.0105 0.8805 0.4739
vn -0.0800 0.9692 -0.2330
vn -0.0986 0.9918 0.0808
vn -0.1572 0.9862 -0.0519
vn -0.3319 0.7687 0.5467
vn -0.6319 0.5895 0.5031
vn 0.1573 -0.0763 0.9846
vn -0.3896 0.7345 0.5556
vn -0.5636 0.0702 0.8231
vn -0.5964 -0.0969 -0.7968
vn -0.4734 0.5457 -0.6914
vn 0.1565 0.3327 -0.9300
vn 0.0540 0.8054 -0.5902
vn 0.2190 -0.5108 -0.8313
vn -0.4309 0.1134 0.8952
vn -0.9097 0.4065 -0.0842
vn -0.8588 -0.2573 0.4429
vn -0.2575 0.4506 0.8548
vn 0.1206 -0.1100 -0.9866
vn -0.2414 0.1718 -0.9551
vn -0.6672 0.4296 -0.6085
vn -0.0901 0.9691 -0.2297
vn -0.0130 0.8057 -0.5922
vn 0.1575 0.3847 0.9095
vn -0.2231 -0.9591 0.1739
vn 0.2854 0.0799 0.9551
vn 0.2372 0.0956 -0.9668
vn -0.1607 -0.9676 -0.1949
vn -0.1209 0.7777 -0.6169
vn 0.0201 0.7958 -0.6052
vn 0.1039 0.3411 -0.9343
vn 0.0827 0.1771 -0.9807
vn -0.0750 0.1889 0.9791
vn -0.0101 0.1282 -0.9917
vn 0.2085 0.8125 0.5445
vn -0.3942 -0.8157 -0.4233
vn -0.3091 -0.9510 0.0005
vn -0.3610 -0.7313 0.5786
vn -0.5996 -0.5716 -0.5601
vn -0.6418 -0.5032 0.5787
vn -0.3578 -0.7155 -0.6000
vn 0.0239 0.5730 0.8192
vn -0.0354 0.9838 -0.1760
vn -0.5420 0.8403 0.0068
vn 0.3040 0.9488 0.0858
vn -0.5729 0.7717 0.2761
vn -0.6884 -0.0270 0.7249
vn 0.1080 0.9888 0.1034
vn -0.3023 -0.8918 0.3366
vn -0.3159 0.7777 0.5434
vn -0.0483 0.9779 0.2033
vn 0.0762 0.7923 0.6053
vn -0.0483 0.9779 0.2032
vn -0.3699 0.9289 -0.0179
vn -0.0799 0.9703 -0.2284
vn -0.2381 0.3278 0.9143
vn 0.1549 0.3970 0.9046
vn -0.3800 0.7407 -0.5540
vn 0.1040 0.3411 -0.9343
vn 0.0201 0.7958 -0.6053
vn -0.4155 0.2454 -0.8759
vn -0.2209 -0.9122 -0.3451
vn -0.3739 -0.9251 -0.0664
vn -0.3422 -0.2958 -0.8918
vn 0.5756 0.5153 0.6350
vn -0.3160 0.7777 0.5434
vn -0.3288 -0.3216 0.8880
vn -0.1900 0.3260 0.9261
vn 0.2017 0.3967 0.8955
vn -0.1830 -0.3951 0.9003
vn 0.1706 0.5057 -0.8457
vn 0.4391 0.8789 0.1865
vn -0.0488 -0.1476 0.9878
vn -0.3556 -0.3519 -0.8659
vn 0.0072 0.3566 -0.9342
vn -0.5043 0.2598 -0.8235
vn -0.4872 0.5911 0.6429
vn 0.1898 0.8813 -0.4327
vn -0.5757 0.7442 -0.3388
vn -0.5216 0.5408 -0.6599
vn -0.5317 0.6641 0.5256
vn -0.2748 -0.8735 -0.4019
vn 0.2185 0.0529 0.9744
vn 0.2551 -0.9327 -0.2549
vn -0.2522 -0.9176 0.3071
vn -0.2795 -0.9136 0.2955
vn -0.3815 -0.3093 -0.8711
vn -0.2147 -0.7904 -0.5737
vn -0.0303 -0.4276 0.9034
vn -0.4056 0.1700 -0.8981
vn -0.2370 -0.4435 -0.8644
vn -0.2609 -0.3703 -0.8915
vn -0.0836 -0.3856 0.9189
vn -0.1238 -0.3672 0.9219
vn -0.2224 0.1937 0.9555
vn -0.1834 0.3522 0.9178
vn 0.0049 0.8854 0.4647
vn -0.0132 0.8822 -0.4706
vn -0.2571 0.3032 -0.9176
vn -0.4984 -0.8020 -0.3293
vn 0.1938 -0.5723 0.7968
vn -0.3958 -0.7696 -0.5010
vn 0.1468 -0.5183 -0.8425
vn -0.6006 -0.7253 0.3365
vn -0.8187 -0.2819 0.5003
vn -0.1860 -0.2547 0.9490
vn -0.2652 -0.0523 -0.9628
vn -0.4340 0.0416 -0.9000
vn -0.7819 -0.3866 -0.4889
vn -0.7450 -0.2460 0.6201
vn -0.4153 0.0710 0.9069
vn -0.5163 -0.0894 0.8518
vn 0.1375 -0.2990 -0.9443
vn 0.1652 0.8753 0.4546
vn -0.3746 0.9168 -0.1386
vn 0.2781 0.6648 0.6933
vn 0.2749 0.6573 -0.7017
vn -0.3639 0.9314 0.0088
vn 0.0634 0.9354 -0.3479
vn -0.3952 -0.7479 -0.5334
vn -0.2479 -0.8566 0.4525
vn 0.1195 -0.8736 0.4718
vn 0.0159 -0.8886 -0.4585
vn 0.0008 0.2936 -0.9559
vn 0.0079 -0.1700 -0.9854
vn 0.1506 -0.2370 0.9598
vn 0.0339 0.9991 0.0257
vn 0.1561 0.9415 -0.2988
vn 0.2619 0.8834 0.3886
vn 0.3706 -0.7292 0.5753
vn -0.0123 0.6443 -0.7647
vn 0.0341 0.3442 0.9383
vn 0.3173 0.0244 0.9480
vn -0.2382 0.8540 -0.4626
vn -0.0821 -0.7745 -0.6272
vn 0.3140 -0.0159 -0.9493
vn -0.1779 0.9390 0.2942
vn -0.0847 0.9573 -0.2764
vn -0.1962 -0.9346 -0.2967
vn -0.5675 0.5950 0.5691
vn -0.1300 -0.9725 0.1934
vn 0.1060 -0.9926 -0.0594
vn 0.1115 0.3560 -0.9278
vn 0.1518 0.4895 0.8587
vn -0.1503 0.9794 -0.1349
vn -0.6191 -0.1529 0.7703
vn -0.0580 0.5324 -0.8445
vn -0.7578 -0.2759 -0.5912
vn -0.9026 0.3796 -0.2029
vn 0.0890 -0.8884 0.4503
vn -0.6973 0.6731 -0.2464
vn -0.1076 -0.9822 -0.1537
vn 0.3341 -0.0098 0.9425
vn 0.1185 -0.8300 -0.5451
vn -0.1075 -0.8120 0.5736
vn -0.8770 0.4259 -0.2226
vn 0.2016 -0.2936 -0.9344
vn -0.0842 -0.6401 0.7637
vn -0.1922 -0.9706 -0.1450
vn 0.2324 -0.5661 0.7909
vn -0.0594 0.8321 -0.5515
vn -0.1236 -0.0577 -0.9907
vn 0.3165 0.7117 0.6272
vn -0.6891 0.4770 0.5456
vn -0.3967 -0.9171 -0.0400
vn -0.1758 0.7996 0.5743
vn -0.3226 -0.9435 -0.0760
vn -0.0463 0.8887 0.4562
vn 0.2842 0.6060 -0.7429
vn 0.0239 0.6148 -0.7883
vn 0.4879 0.6752 -0.5533
vn 0.1015 0.6663 -0.7387
vn 0.5182 0.8522 -0.0718
vn 0.3178 -0.8453 0.4294
vn 0.3761 -0.8450 0.3803
vn -0.0576 -0.6084 0.7915
vn 0.4989 -0.7514 -0.4318
vn 0.2751 -0.5284 -0.8032
vn 0.3601 0.0395 -0.9321
vn 0.8673 0.4947 -0.0558
vn 0.2961 0.7859 0.5429
vn 0.6361 0.5352 0.5558
vn 0.4715 -0.7057 -0.5288
vn 0.8236 -0.3429 0.4518
vn 0.8011 -0.3052 -0.5148
vn 0.7662 -0.2404 0.5959
vn 0.7574 -0.1915 -0.6243
vn 0.8406 0.2469 -0.4821
vn 0.7941 -0.1385 -0.5918
vn 0.7771 0.5795 0.2456
vn 0.5705 -0.3941 0.7206
vn 0.1963 -0.9804 -0.0168
vn 0.9597 0.1001 -0.2625
vn 0.4590 -0.8789 0.1302
vn 0.9336 0.1823 0.3083
vn 0.6551 -0.5252 -0.5432
vn 0.8091 -0.1259 0.5740
vn 0.7054 -0.5247 0.4765
vn 0.5071 -0.6267 0.5917
vn 0.4708 -0.2332 0.8509
vn 0.3526 -0.6178 0.7028
vn 0.3121 -0.6533 -0.6898
vn 0.6209 0.6598 0.4233
vn 0.4731 -0.2005 0.8579
vn -0.3907 0.4765 0.7876
vn 0.4537 0.6722 0.5850
vn 0.8195 0.5628 -0.1078
vn 0.0615 0.9857 -0.1571
vn -0.0151 0.3861 -0.9223
vn -0.6463 0.3612 -0.6722
vn 0.8014 0.5084 0.3151
vn 0.7075 -0.4705 0.5273
vn 0.7450 0.6441 0.1734
vn 0.6997 0.6316 -0.3339
vn 0.7912 -0.3264 -0.5172
vn 0.8106 0.4625 -0.3591
vn 0.7209 -0.4756 0.5041
vn 0.9063 -0.4202 -0.0452
vn 0.9252 -0.3776 0.0377
vn 0.7147 -0.4476 -0.5374
vn 0.7488 -0.0330 0.6620
vn 0.9019 -0.4317 0.0174
vn -0.3318 -0.1371 0.9333
vn 0.8393 0.5267 -0.1350
vn 0.9417 -0.1085 0.3185
vn -0.2915 0.4595 0.8389
vn -0.3338 0.0778 -0.9394
vn 0.9042 -0.3608 0.2285
vn 0.9508 -0.3097 0.0084
vn -0.1645 -0.7341 0.6588
vn 0.9042 -0.3608 0.2286
vn 0.0236 -0.5886 0.8081
vn -0.2339 -0.0063 0.9722
vn -0.7174 0.6950 0.0469
vn -0.0770 -0.7651 -0.6393
vn 0.9770 -0.2094 -0.0399
vn 0.9161 -0.3987 0.0424
vn -0.8023 0.2563 0.5391
vn -0.2926 0.2443 0.9245
vn -0.4871 0.1078 0.8667
vn -0.3315 0.1377 -0.9334
vn -0.3315 0.6558 0.6782
vn -0.6614 0.7414 0.1135
vn -0.5322 0.1759 0.8281
vn -0.1742 0.3564 0.9179
vn 0.8568 0.5156 -0.0029
vn -0.3912 -0.1650 0.9054
vn -0.5892 -0.3742 -0.7161
vn -0.5497 0.1562 -0.8206
vn -0.4285 0.6282 -0.6494
vn -0.1343 0.6731 -0.7273
vn 0.3038 0.8940 -0.3293
vn -0.2319 0.6751 0.7004
vn -0.0600 -0.9982 0.0053
vn 0.2225 0.8928 -0.3916
vn -0.5333 -0.6540 -0.5365
vn -0.2589 0.4502 -0.8546
vn -0.2331 0.3092 -0.9220
vn -0.3816 0.9168 -0.1177
vn -0.1168 0.9855 -0.1232
vn -0.1161 0.7357 0.6673
vn -0.8378 0.4996 0.2203
vn -0.1168 0.9855 -0.1233
vn -0.8393 0.4988 -0.2161
vn -0.1319 0.7490 -0.6493
vn 0.2445 0.9546 -0.1700
vn -0.6847 0.7105 -0.1623
vn -0.6467 0.6306 -0.4291
vn -0.6861 0.6649 0.2951
vn -0.5281 0.8442 -0.0918
vn -0.2031 0.1526 -0.9672
vn 0.0848 0.8616 0.5004
vn -0.2649 0.7761 0.5722
vn 0.2653 0.7257 -0.6348
vn 0.0288 0.5110 0.8591
vn -0.1967 0.2903 -0.9365
vn 0.7456 0.5541 -0.3704
vn -0.9736 0.0342 0.2258
vn -0.4536 0.8875 0.0816
vn -0.1090 0.9083 0.4040
vn -0.9925 0.1202 0.0238
vn -0.8396 -0.4761 -0.2616
vn -0.3415 -0.7464 0.5712
vn 0.0175 -0.9823 -0.1863
vn 0.7165 -0.6965 -0.0402
vn -0.0090 -0.9899 -0.1412
vn -0.3752 -0.3116 -0.8730
vn -0.9024 0.3460 -0.2570
vn -0.8873 0.1116 -0.4474
vn -0.8187 -0.0010 0.5742
vn -0.8581 0.4422 0.2608
vn -0.2659 -0.0585 0.9622
vn -0.3368 -0.6026 -0.7234
vn -0.0055 -0.9099 -0.4148
vn -0.5512 -0.3858 -0.7398
vn -0.8284 0.0397 -0.5587
vn -0.9610 -0.2765 0.0086
vn -0.8505 -0.0090 0.5260
vn -0.3456 -0.6825 0.6440
vn -0.5153 -0.3880 0.7641
vn -0.7058 -0.5452 -0.4523
vn -0.9859 0.1434 -0.0858
vn -0.9988 0.0326 -0.0354
vn -0.8811 0.4509 0.1430
vn 0.0907 -0.2632 -0.9605
vn -0.8354 0.4960 -0.2367
vn -0.4157 -0.6161 0.6690
vn -0.5340 0.6572 0.5319
vn -0.4912 -0.1960 -0.8487
vn -0.7333 -0.3192 0.6003
vn -0.8305 0.5250 -0.1862
vn -0.6517 0.7339 0.1916
vn -0.0698 0.7331 0.6766
vn 0.6750 0.5898 -0.4432
vn -0.6859 0.3148 0.6561
vn -0.2696 0.6676 -0.6940
vn 0.4871 -0.4567 0.7444
vn -0.7990 0.3129 0.5135
vn -0.9168 0.0842 0.3904
vn -0.8823 0.4586 -0.1064
vn -0.8902 0.2505 -0.3806
vn 0.4018 -0.6340 0.6607
vn -0.8344 0.4662 0.2940
vn 0.5350 0.8432 0.0530
vn 0.2381 -0.9050 0.3526
vn -0.2402 0.4812 -0.8430
vn -0.9604 0.2784 0.0084
vn -0.5791 0.7005 0.4169
vn -0.8833 -0.2829 0.3737
vn -0.9738 0.2235 -0.0416
vn 0.3180 0.3573 0.8782
vn -0.6363 0.7702 0.0440
vn -0.9794 0.0081 0.2020
vn -0.6222 0.7820 0.0354
vn -0.9877 0.1561 -0.0055
vn -0.9693 0.2425 -0.0411
vn -0.1473 0.8165 0.5583
vn -0.9632 0.0780 0.2574
vn -0.0799 0.7545 -0.6515
vn -0.0465 -0.9984 0.0328
vn -0.6550 0.6710 0.3476
vn -0.9866 0.0272 0.1606
vn 0.1891 -0.8405 -0.5078
vn 0.5395 -0.8369 0.0921
vn -0.0763 -0.9954 -0.0576
vn 0.5782 -0.8146 0.0459
vn 0.2340 -0.2878 -0.9287
vn 0.5638 -0.4163 -0.7133
vn 0.6600 0.3771 -0.6497
vn 0.3531 0.6276 -0.6938
vn 0.6502 0.3299 0.6844
vn 0.0889 0.9944 -0.0564
vn 0.6056 0.7895 0.0998
vn 0.6176 0.7812 -0.0913
vn 0.1255 0.9919 0.0188
vn 0.9962 0.0006 0.0872
vn 0.9998 0.0023 0.0219
vt 0.165963 0.380810
vt 0.174868 0.381897
vt 0.238273 0.380774
vt 0.219386 0.382066
vt 0.159576 0.380892
vt 0.133506 0.382057
vt 0.080021 0.381017
vt 0.064867 0.381806
vt 0.239843 0.381777
vt 0.220217 0.381022
vt 0.068969 0.381372
vt 0.054762 0.381436
vt 0.315404 0.381767
vt 0.296955 0.381035
vt 0.088521 0.381724
vt 0.072630 0.381320
vt 0.316747 0.380970
vt 0.296653 0.381864
vt 0.344586 0.381405
vt 0.324803 0.381413
vt 0.025583 0.381342
vt 0.220383 0.379299
vt 0.041694 0.413287
vt 0.041134 0.426168
vt 0.138924 0.381559
vt 0.036557 0.381602
vt 0.039681 0.383020
vt 0.043742 0.382884
vt 0.429645 0.055929
vt 0.427342 0.055784
vt 0.436836 0.055880
vt 0.235936 0.432105
vt 0.312018 0.381767
vt 0.145296 0.378207
vt 0.319918 0.438453
vt 0.328993 0.380012
vt 0.430551 0.056060
vt 0.429659 0.055995
vt 0.433733 0.056122
vt 0.426588 0.055993
vt 0.418626 0.055696
vt 0.340183 0.381965
vt 0.316372 0.436605
vt 0.302685 0.381842
vt 0.273046 0.440310
vt 0.316448 0.439466
vt 0.387364 0.055998
vt 0.242560 0.454138
vt 0.148557 0.381157
vt 0.316448 0.438876
vt 0.411967 0.056052
vt 0.391592 0.056008
vt 0.150296 0.454346
vt 0.126329 0.450519
vt 0.146737 0.455865
vt 0.391996 0.056008
vt 0.392387 0.056008
vt 0.400727 0.056009
vt 0.133199 0.455733
vt 0.390611 0.055971
vt 0.321235 0.502761
vt 0.037002 0.005441
vt 0.141807 0.009304
vt 0.088405 0.058446
vt 0.222733 0.104004
vt 0.193281 0.013021
vt 0.149064 0.016259
vt 0.042796 0.007206
vt 0.053140 0.050538
vt 0.135792 0.009166
vt 0.207419 0.006622
vt 0.161683 0.103348
vt 0.580080 0.529658
vt 0.579917 0.529567
vt 0.579932 0.529408
vt 0.160983 0.078551
vt 0.144830 0.058899
vt 0.214707 0.058398
vt 0.369572 0.008393
vt 0.359954 0.067561
vt 0.380897 0.015941
vt 0.219195 0.520757
vt 0.233352 0.473357
vt 0.256260 0.022814
vt 0.166870 0.021088
vt 0.147273 0.042851
vt 0.642114 0.588352
vt 0.621141 0.610691
vt 0.612085 0.588063
vt 0.347981 0.038709
vt 0.322098 0.065788
vt 0.323426 0.009357
vt 0.277463 0.058965
vt 0.266366 0.083855
vt 0.285215 0.012332
vt 0.282083 0.059541
vt 0.147705 0.433202
vt 0.087201 0.370662
vt 0.206698 0.357150
vt 0.070973 0.480542
vt 0.095045 0.452037
vt 0.060439 0.427964
vt 0.274820 0.010297
vt 0.272811 0.036331
vt 0.232711 0.009776
vt 0.323309 0.009816
vt 0.097340 0.478941
vt 0.096025 0.452349
vt 0.098506 0.477044
vt 0.061535 0.429199
vt 0.057413 0.379764
vt 0.733549 0.598974
vt 0.750107 0.590192
vt 0.715331 0.590113
vt 0.741521 0.731965
vt 0.733572 0.739890
vt 0.732323 0.731841
vt 0.265417 0.050981
vt 0.042259 0.043738
vt 0.282147 0.043027
vt 0.285132 0.012328
vt 0.193582 0.014363
vt 0.282374 0.043027
vt 0.076136 0.431089
vt 0.104031 0.076219
vt 0.361292 0.068576
vt 0.323495 0.009816
vt 0.322168 0.065788
vt 0.212122 0.050943
vt 0.207615 0.006647
vt 0.260151 0.067454
vt 0.285663 0.056993
vt 0.272742 0.036331
vt 0.216585 0.078139
vt 0.367560 0.106741
vt 0.285732 0.056993
vt 0.221400 0.102615
vt 0.048566 0.078860
vt 0.129155 0.163566
vt 0.084362 0.220898
vt 0.298683 0.094427
vt 0.054612 0.140916
vt 0.365425 0.107551
vt 0.377161 0.158576
vt 0.035388 0.177493
vt 0.149780 0.197925
vt 0.268408 0.158079
vt 0.281870 0.225231
vt 0.369946 0.180930
vt 0.036396 0.189807
vt 0.076649 0.203672
vt 0.326181 0.160723
vt 0.212121 0.197917
vt 0.210290 0.186727
vt 0.213120 0.208731
vt 0.326943 0.202220
vt 0.212954 0.170790
vt 0.374381 0.207118
vt 0.374314 0.207043
vt 0.313683 0.267657
vt 0.025210 0.244317
vt 0.004435 0.253961
vt 0.149538 0.320915
vt 0.120862 0.323417
vt 0.008156 0.286047
vt 0.064708 0.286853
vt 0.389185 0.199025
vt 0.028130 0.233070
vt 0.025962 0.244272
vt 0.027318 0.194308
vt 0.340285 0.260052
vt 0.386598 0.263641
vt 0.340280 0.260019
vt 0.374291 0.207018
vt 0.213697 0.170086
vt 0.214778 0.235867
vt 0.217541 0.253524
vt 0.214185 0.298278
vt 0.012722 0.255424
vt 0.013323 0.276966
vt 0.206273 0.327670
vt 0.387967 0.218617
vt 0.370165 0.231012
vt 0.368731 0.255576
vt 0.380994 0.249114
vt 0.336677 0.277243
vt 0.340284 0.260022
vt 0.340301 0.260011
vt 0.386580 0.263662
vt 0.336670 0.277256
vt 0.012959 0.277543
vt 0.287023 0.300730
vt 0.321205 0.312686
vt 0.382997 0.298535
vt 0.360454 0.310327
vt 0.336668 0.277234
vt 0.661472 0.393292
vt 0.511044 0.389820
vt 0.564533 0.346253
vt 0.570031 0.345216
vt 0.507581 0.364671
vt 0.673725 0.392382
vt 0.288786 0.321545
vt 0.667031 0.372062
vt 0.723635 0.403264
vt 0.882108 0.354201
vt 0.753533 0.359652
vt 0.360353 0.310279
vt 0.877037 0.377547
vt 0.883385 0.382447
vt 0.731896 0.377919
vt 0.867674 0.352768
vt 0.320967 0.312356
vt 0.896070 0.382212
vt 0.215312 0.298779
vt 0.670412 0.427567
vt 0.897281 0.420821
vt 0.884276 0.416121
vt 0.676373 0.418362
vt 0.899913 0.407095
vt 0.288785 0.321546
vt 0.206406 0.326584
vt 0.217530 0.253516
vt 0.722497 0.417669
vt 0.712842 0.410250
vt 0.501829 0.438962
vt 0.497172 0.439080
vt 0.010111 0.317943
vt 0.452137 0.418024
vt 0.453809 0.445771
vt 0.450903 0.440296
vt 0.451717 0.417608
vt 0.916252 0.425140
vt 0.930291 0.393980
vt 0.968494 0.395268
vt 0.883906 0.427676
vt 0.967854 0.395653
vt 0.961303 0.414678
vt 0.899583 0.439463
vt 0.056336 0.320248
vt 0.292894 0.354284
vt 0.332530 0.295612
vt 0.284042 0.302024
vt 0.332692 0.295612
vt 0.380744 0.352677
vt 0.383146 0.298066
vt 0.360125 0.310491
vt 0.374683 0.355197
vt 0.320781 0.312098
vt 0.212677 0.354458
vt 0.214418 0.298768
vt 0.320900 0.312263
vt 0.289795 0.355629
vt 0.206447 0.326392
vt 0.209699 0.356717
vt 0.009856 0.313092
vt 0.006211 0.317943
vt 0.674663 0.491713
vt 0.884390 0.487927
vt 0.293046 0.354284
vt 0.663408 0.489547
vt 0.218672 0.351651
vt 0.214185 0.298288
vt 0.119897 0.324037
vt 0.823390 0.485095
vt 0.887195 0.434326
vt 0.876581 0.487808
vt 0.289437 0.355672
vt 0.159247 0.345097
vt 0.206415 0.326735
vt 0.208030 0.360042
vt 0.883556 0.489987
vt 0.941323 0.390125
vt 0.960472 0.421035
vt 0.526299 0.491230
vt 0.517225 0.489100
vt 0.718070 0.480170
vt 0.713005 0.485373
vt 0.855153 0.506261
vt 0.595200 0.531574
vt 0.636860 0.505256
vt 0.930328 0.506170
vt 0.964548 0.527183
vt 0.485210 0.505759
vt 0.056808 0.519008
vt 0.013082 0.532111
vt 0.009531 0.520233
vt 0.490987 0.515698
vt 0.498518 0.548871
vt 0.451020 0.517413
vt 0.458065 0.543883
vt 0.385293 0.519877
vt 0.106951 0.518927
vt 0.032247 0.545592
vt 0.097209 0.897359
vt 0.007445 0.927857
vt 0.010049 0.902638
vt 0.008729 0.969673
vt 0.063091 0.983600
vt 0.008317 0.983257
vt 0.480014 0.541526
vt 0.596668 0.976840
vt 0.781830 0.926313
vt 0.525383 0.916376
vt 0.526373 0.904445
vt 0.745041 0.936075
vt 0.586341 0.984917
vt 0.015625 0.564183
vt 0.317519 0.968266
vt 0.019452 0.981407
vt 0.009311 0.964841
vt 0.013441 0.913735
vt 0.013273 0.902384
vt 0.253029 0.907730
vt 0.672736 0.899442
vt 0.643907 0.892965
vt 0.494585 0.719108
vt 0.939900 0.713458
vt 0.961820 0.555640
vt 0.036263 0.661747
vt 0.453278 0.665887
vt 0.246324 0.515713
vt 0.155638 0.699363
vt 0.352654 0.741279
vt 0.288896 0.900482
vt 0.060788 0.707551
vt 0.452472 0.672898
vt 0.265276 0.938118
vt 0.755039 0.974388
vt 0.229968 0.975657
vt 0.279483 0.928012
vt 0.756371 0.978744
vt 0.292644 0.978032
vt 0.807174 0.877382
vt 0.269452 0.893967
vt 0.747087 0.888721
vt 0.733761 0.756150
vt 0.951422 0.666618
vt 0.483210 0.670554
vt 0.822985 0.972965
vt 0.959457 0.900097
vt 0.923024 0.962378
vt 0.916693 0.908688
vt 0.929296 0.988776
vt 0.908075 0.875958
vt 0.032132 0.690610
vt 0.897887 0.872871
vt 0.490672 0.941031
vt 0.431744 0.978550
vt 0.369580 0.978118
vt 0.372170 0.982385
vt 0.017991 0.680847
vt 0.491415 0.668829
vt 0.356707 0.891233
vt 0.485357 0.913364
vt 0.338500 0.892250
vt 0.967976 0.971427
vt 0.463610 0.745560
vt 0.498694 0.698673
vt 0.945317 0.873986
vt 0.471782 0.710661
vt 0.400030 0.892435
vt 0.400021 0.977534
vt 0.450983 0.899538
vt 0.068474 0.711448
vt 0.022878 0.761656
vt 0.032814 0.693930
vt 0.243810 0.780699
vt 0.636307 0.786948
vt 0.498398 0.769864
vt 0.458870 0.892842
vt 0.964532 0.768971
vt 0.460860 0.958087
vt 0.470280 0.926511
vt 0.150041 0.790813
vt 0.453548 0.975937
vt 0.477248 0.780079
vt 0.858458 0.804081
vt 0.563205 0.799100
vt 0.928680 0.799100
vt 0.496303 0.789521
vt 0.987585 0.789521
vt 0.008729 0.797929
vt 0.044815 0.798727
vt 0.369032 0.804123
vt 0.620622 0.808881
vt 0.714925 0.839086
vt 0.131627 0.801967
vt 0.457260 0.811290
vt 0.166361 0.806512
vt 0.846834 0.832231
vt 0.649172 0.830877
vt 0.629305 0.816228
vt 0.642788 0.834372
vt 0.667206 0.834184
vt 0.822795 0.834859
vt 0.318978 0.799166
vt 0.642828 0.834401
vt 0.929442 0.035325
vt 0.938327 0.005624
vt 0.608539 0.010080
vt 0.662918 0.009866
vt 0.939345 0.003866
vt 0.921814 0.044999
vt 0.441425 0.860740
vt 0.501037 0.821398
vt 0.451550 0.830821
vt 0.486526 0.838938
vt 0.506291 0.840167
vt 0.476181 0.864617
vt 0.529369 0.871685
vt 0.561095 0.825677
vt 0.546486 0.830480
vt 0.516308 0.865748
vt 0.487162 0.867376
vt 0.591212 0.867422
vt 0.557715 0.865394
vt 0.592809 0.127881
vt 0.605479 0.010193
vt 0.544845 0.036641
vt 0.681113 0.057838
vt 0.706119 0.105193
vt 0.513564 0.039759
vt 0.465605 0.033390
vt 0.503451 0.110769
vt 0.503022 0.110749
vt 0.936274 0.046327
vt 0.948272 0.056180
vt 0.475421 0.108488
vt 0.466147 0.034160
vt 0.660956 0.013151
vt 0.950662 0.056216
vt 0.930532 0.036513
vt 0.692280 0.132368
vt 0.740425 0.111535
vt 0.870876 0.118520
vt 0.949068 0.056955
vt 0.743440 0.107404
vt 0.691664 0.130941
vt 0.605250 0.010665
vt 0.599709 0.118175
vt 0.662017 0.121376
vt 0.737155 0.112557
vt 0.949392 0.057601
vt 0.882626 0.119738
vt 0.941342 0.113604
vt 0.680881 0.058569
vt 0.471242 0.107359
vt 0.947731 0.110068
vt 0.662349 0.121494
vt 0.694535 0.135070
vt 0.951492 0.120142
vt 0.523251 0.328066
vt 0.499230 0.327266
vt 0.523212 0.328142
vt 0.540161 0.328398
vt 0.946406 0.120313
vt 0.944119 0.154004
vt 0.694309 0.135896
vt 0.912290 0.175680
vt 0.945548 0.122529
vt 0.944094 0.169824
vt 0.814829 0.188960
vt 0.776168 0.204348
vt 0.064303 0.677449
vt 0.064632 0.677242
vt 0.065506 0.677662
vt 0.935767 0.172850
vt 0.066074 0.677242
vt 0.066481 0.677385
vt 0.591412 0.125420
vt 0.474595 0.108435
vt 0.504243 0.112810
vt 0.571457 0.122401
vt 0.307563 0.823522
vt 0.271306 0.864444
vt 0.260205 0.824157
vt 0.235498 0.826289
vt 0.276234 0.868317
vt 0.304724 0.823380
vt 0.582779 0.122934
vt 0.590036 0.126038
vt 0.595074 0.121672
vt 0.066920 0.676806
vt 0.064096 0.676510
vt 0.063639 0.676759
vt 0.557462 0.117768
vt 0.576919 0.112336
vt 0.552019 0.110684
vt 0.469133 0.112422
vt 0.065380 0.677413
vt 0.271210 0.863809
vt 0.223586 0.863908
vt 0.257001 0.824887
vt 0.202165 0.841797
vt 0.468821 0.113140
vt 0.592263 0.128010
vt 0.474354 0.108475
vt 0.672995 0.167407
vt 0.674808 0.168164
vt 0.940600 0.202409
vt 0.917289 0.198692
vt 0.063599 0.675453
vt 0.799097 0.189419
vt 0.676616 0.288792
vt 0.661882 0.165084
vt 0.759211 0.206814
vt 0.066566 0.676122
vt 0.067030 0.675754
vt 0.214689 0.865920
vt 0.276288 0.868106
vt 0.945264 0.177176
vt 0.822567 0.220990
vt 0.947849 0.213000
vt 0.064531 0.674827
vt 0.064194 0.674467
vt 0.066158 0.674804
vt 0.066477 0.674534
vt 0.558191 0.133069
vt 0.065314 0.674160
vt 0.065461 0.674546
vt 0.065208 0.674546
vt 0.821181 0.217052
vt 0.907379 0.194833
vt 0.815143 0.210131
vt 0.907387 0.194936
vt 0.906725 0.239948
vt 0.947094 0.203726
vt 0.947826 0.213753
vt 0.811774 0.217968
vt 0.758011 0.340736
vt 0.891201 0.238994
vt 0.739552 0.342692
vt 0.725256 0.192211
vt 0.681147 0.320083
vt 0.561060 0.289584
vt 0.532081 0.126281
vt 0.544286 0.276427
vt 0.482188 0.120819
vt 0.488052 0.269937
vt 0.490882 0.269194
vt 0.488086 0.123578
vt 0.542922 0.322437
vt 0.574586 0.323594
s 1
f 340/1/1 338/2/2 342/3/3
f 450/4/4 449/5/5 452/6/6
f 340/1/1 367/7/7 338/2/2
f 449/5/5 469/8/8 452/6/6
f 341/9/9 342/3/3 338/2/2
f 449/5/5 450/4/4 453/10/10
f 431/11/11 338/2/2 367/7/7
f 469/8/8 449/5/5 467/12/12
f 341/9/9 354/13/13 342/3/3
f 450/4/4 473/14/14 453/10/10
f 365/15/15 338/2/2 431/11/11
f 467/12/12 449/5/5 465/16/16
f 355/17/17 342/3/3 354/13/13
f 473/14/14 450/4/4 475/18/18
f 383/19/19 355/17/17 354/13/13
f 473/14/14 475/18/18 503/20/20
f 366/21/21 339/22/22 368/23/23
f 468/24/24 451/25/25 466/26/26
f 368/23/23 364/27/27 366/21/21
f 466/26/26 464/28/28 468/24/24
f 447/29/29 509/30/30 363/31/31
f 451/25/25 471/32/32 476/33/33
f 337/34/34 398/35/35 353/36/36
f 511/37/37 508/38/38 497/39/39
f 499/40/40 508/38/38 511/37/37
f 447/29/29 361/41/41 509/30/30
f 504/42/42 506/43/43 474/44/44
f 394/45/45 339/22/22 353/36/36
f 504/42/20 476/33/46 478/46/47
f 361/41/41 447/29/29 446/47/48
f 368/23/23 339/22/22 394/45/45
f 474/44/49 481/48/50 448/49/51
f 398/35/35 394/45/45 353/36/36
f 504/42/42 479/50/52 506/43/43
f 471/32/32 479/50/47 476/33/33
f 447/29/29 443/51/53 446/47/48
f 499/40/40 495/52/54 508/38/38
f 451/25/25 468/24/24 463/53/55
f 364/27/27 344/54/56 337/34/34
f 448/49/51 455/55/57 464/28/28
f 495/52/54 499/40/40 513/56/58
f 463/53/55 471/32/32 451/25/25
f 513/56/58 499/40/40 486/57/59
f 344/54/56 364/27/27 368/23/23
f 468/24/24 464/28/28 455/55/57
f 446/47/48 443/51/53 510/58/60
f 368/23/23 394/45/45 346/59/61
f 446/47/48 510/58/60 440/60/62
f 337/34/34 357/61/63 398/35/35
f 498/62/64 496/63/65 414/64/66
f 372/65/67 437/66/68 362/67/69
f 455/55/57 463/53/55 468/24/24
f 368/23/23 346/59/61 344/54/56
f 444/68/70 434/69/71 360/70/72
f 496/63/65 507/71/73 415/72/74
f 401/73/75 399/74/76 358/75/77
f 480/76/78 505/77/79 477/78/80
f 439/79/81 435/80/82 445/81/48
f 337/34/34 344/54/56 348/82/83
f 460/83/84 455/55/57 448/49/51
f 396/84/85 400/85/86 356/86/87
f 397/87/88 352/88/89 395/89/90
f 502/90/91 490/91/92 484/92/93
f 472/93/94 458/94/95 477/78/80
f 442/95/96 382/96/97 439/79/81
f 462/97/98 457/98/99 470/99/100
f 345/100/101 393/101/102 350/102/103
f 512/103/104 515/104/105 493/105/106
f 483/106/107 515/104/105 512/103/104
f 348/82/83 357/61/63 337/34/34
f 448/49/51 481/48/50 460/83/84
f 454/107/108 459/108/109 517/109/110
f 347/110/111 343/111/112 345/100/101
f 349/112/113 438/113/114 359/114/77
f 482/115/115 487/116/93 461/117/116
f 356/86/87 351/118/117 396/84/85
f 477/78/80 458/94/95 480/76/78
f 498/62/64 414/64/66 500/119/118
f 432/120/119 441/121/120 436/122/121
f 435/80/82 439/79/81 382/96/97
f 442/95/96 433/123/122 382/96/97
f 456/124/123 517/109/110 459/108/109
f 345/100/101 350/102/103 347/110/111
f 373/125/124 362/67/69 360/70/72
f 502/90/91 501/126/125 490/91/92
f 485/127/126 491/128/127 515/104/105
f 434/69/71 373/125/124 360/70/72
f 415/72/74 507/71/73 413/129/128
f 494/130/129 515/104/130 492/131/131
f 488/132/132 514/133/105 490/91/92
f 412/134/133 494/130/129 492/131/131
f 370/135/134 435/80/82 382/96/97
f 515/104/130 489/136/135 492/131/131
f 432/120/119 436/122/121 371/137/136
f 434/69/71 369/138/137 373/125/124
f 382/96/97 432/120/119 371/137/136
f 372/65/67 362/67/69 374/139/138
f 420/140/139 414/64/66 496/63/65
f 425/141/140 488/132/132 490/91/92
f 414/64/66 410/142/141 500/119/118
f 501/126/125 411/143/142 490/91/92
f 489/136/135 425/141/140 492/131/131
f 362/67/69 373/125/124 374/139/138
f 420/140/139 496/63/65 415/72/74
f 412/134/133 492/131/131 425/141/140
f 425/141/140 490/91/92 411/143/142
f 382/96/97 376/144/143 370/135/134
f 369/138/137 375/145/144 373/125/124
f 413/129/128 421/146/145 415/72/74
f 333/147/146 382/96/97 371/137/136
f 420/140/139 415/72/74 421/146/145
f 412/134/133 425/141/140 405/148/147
f 425/141/140 411/143/142 417/149/148
f 414/64/66 416/150/149 410/142/141
f 373/125/124 380/151/150 374/139/138
f 331/152/151 376/144/143 382/96/97
f 421/146/145 413/129/128 418/153/152
f 333/147/146 331/152/151 382/96/97
f 378/154/153 372/65/67 374/139/138
f 405/148/147 419/155/154 412/134/133
f 425/141/140 417/149/148 516/156/155
f 371/137/136 377/157/156 333/147/146
f 380/151/150 373/125/124 375/145/144
f 416/150/149 414/64/66 420/140/139
f 425/141/140 516/156/155 405/148/147
f 417/149/148 424/158/157 516/156/155
f 516/156/155 423/159/158 402/160/159
f 380/151/150 375/145/144 385/161/160
f 416/150/149 420/140/139 426/162/161
f 418/153/152 7/163/162 421/146/145
f 374/139/138 147/164/163 378/154/153
f 421/146/145 389/165/164 420/140/139
f 380/151/150 330/166/165 374/139/138
f 376/144/143 331/152/151 336/167/166
f 334/168/167 386/169/168 381/170/169
f 408/171/170 402/160/159 423/159/158
f 430/172/171 406/173/172 422/174/173
f 405/148/147 516/156/155 402/160/159
f 379/175/174 332/176/175 333/147/146
f 405/148/147 404/177/176 419/155/154
f 150/178/177 378/154/153 147/164/163
f 389/165/164 421/146/145 7/163/162
f 147/164/163 374/139/138 330/166/165
f 427/179/178 420/140/139 389/165/164
f 380/151/150 385/161/160 392/180/179
f 7/163/162 418/153/152 37/181/180
f 331/152/151 522/182/181 336/167/166
f 335/183/182 520/184/183 387/185/184
f 525/186/185 402/160/186 407/187/170
f 409/188/187 428/189/188 524/190/185
f 330/166/165 380/151/150 391/191/189
f 155/192/190 331/152/151 333/147/146
f 402/160/159 32/193/191 405/148/147
f 331/152/151 27/194/192 522/182/181
f 25/195/193 402/160/194 523/196/195
f 155/192/190 333/147/146 332/176/175
f 125/197/196 114/198/197 126/199/198
f 319/200/199 305/201/200 314/202/201
f 404/177/176 405/148/147 35/203/202
f 319/200/199 314/202/201 315/204/203
f 313/205/204 308/206/205 317/207/206
f 27/194/192 331/152/151 155/192/190
f 402/160/159 24/208/193 32/193/191
f 308/206/205 313/205/204 307/209/207
f 112/210/208 124/211/209 127/212/210
f 35/203/202 405/148/147 31/213/211
f 307/209/207 306/214/212 308/206/205
f 332/176/175 152/215/213 155/192/190
f 108/216/214 114/198/197 125/197/196
f 307/209/207 313/205/204 303/217/215
f 111/218/216 124/211/209 112/210/208
f 314/202/201 305/201/200 300/219/217
f 306/214/212 307/209/207 304/220/218
f 33/221/219 36/222/220 403/223/221
f 301/224/222 303/217/215 313/205/204
f 124/211/209 111/218/216 109/225/223
f 114/198/197 108/216/214 107/226/224
f 302/227/225 300/219/217 305/201/200
f 391/191/189 18/228/226 330/166/165
f 318/229/227 311/230/228 302/227/225
f 107/226/224 121/231/229 118/232/230
f 117/233/231 123/234/232 120/235/233
f 123/234/232 117/233/231 116/236/234
f 119/237/235 122/238/236 115/239/237
f 147/164/163 330/166/165 145/240/238
f 140/241/239 153/242/240 156/243/241
f 154/244/242 22/245/243 28/246/193
f 23/247/193 21/248/243 29/249/244
f 142/250/245 156/243/241 151/251/246
f 34/221/219 30/252/244 14/253/247
f 38/254/248 34/221/249 5/255/250
f 17/256/251 389/165/164 7/163/162
f 145/240/238 330/166/165 16/257/252
f 300/219/217 302/227/225 252/258/253
f 117/233/231 102/259/254 116/236/234
f 302/227/225 311/230/228 252/258/253
f 154/244/242 141/260/255 22/245/243
f 140/241/239 156/243/241 142/250/245
f 104/261/256 107/226/224 108/216/214
f 30/252/244 21/248/243 14/253/247
f 104/261/256 121/231/229 107/226/224
f 143/262/257 150/263/258 146/264/259
f 98/265/260 111/218/216 116/236/234
f 109/225/223 111/218/216 98/265/260
f 309/266/261 303/217/215 255/267/262
f 255/267/262 303/217/215 301/224/222
f 5/255/250 34/221/249 13/268/247
f 10/269/263 37/270/264 4/271/265
f 102/259/254 98/265/260 116/236/234
f 101/272/266 115/239/237 122/238/236
f 309/266/261 255/267/262 310/273/267
f 312/274/268 310/273/267 255/267/262
f 252/258/253 311/230/228 254/275/269
f 99/276/270 121/231/229 104/261/256
f 105/277/271 109/225/223 98/265/260
f 255/267/262 301/224/222 253/278/272
f 8/279/273 15/280/274 19/281/275
f 11/282/276 2/283/277 8/279/273
f 19/281/275 15/280/274 148/284/278
f 3/285/279 1/286/280 9/287/281
f 149/288/282 158/289/283 144/290/284
f 139/291/285 138/292/286 144/290/284
f 3/285/279 12/293/287 6/294/288
f 247/295/289 246/296/290 251/297/291
f 8/279/273 2/283/277 15/280/274
f 91/298/292 92/299/293 103/300/294
f 15/280/274 157/301/295 148/284/278
f 144/290/284 158/289/283 139/291/285
f 6/294/288 1/286/280 3/285/279
f 245/302/296 242/303/297 248/304/298
f 94/305/299 84/306/300 96/307/301
f 60/308/302 1/286/280 6/294/288
f 240/309/303 244/310/304 243/311/305
f 97/312/306 95/313/307 90/314/308
f 242/303/297 249/315/309 248/304/298
f 94/305/299 93/316/310 84/306/300
f 243/311/305 246/296/290 240/309/303
f 90/314/308 91/298/292 97/312/306
f 214/317/311 157/301/295 15/280/274
f 2/283/277 46/318/312 15/280/274
f 2/283/277 61/319/313 46/318/312
f 6/294/288 59/320/314 60/308/302
f 158/289/283 229/321/315 139/291/285
f 20/322/316 50/323/317 12/293/287
f 138/292/286 215/324/318 20/322/316
f 246/296/290 247/295/289 236/325/319
f 6/294/288 12/293/287 57/326/320
f 218/327/321 138/292/286 139/291/285
f 240/309/303 246/296/290 241/328/322
f 242/303/297 245/302/296 239/329/323
f 87/330/324 92/299/293 91/298/292
f 89/331/325 91/298/292 90/314/308
f 86/332/326 96/307/301 84/306/300
f 238/333/327 244/310/304 240/309/303
f 237/334/328 249/315/309 242/303/297
f 90/314/308 95/313/307 85/335/329
f 84/306/300 93/316/310 88/336/330
f 241/328/322 246/296/290 236/325/319
f 55/337/331 214/317/311 15/280/274
f 15/280/274 46/318/312 55/337/331
f 87/330/324 91/298/292 89/331/325
f 61/319/313 52/338/332 46/318/312
f 215/324/318 50/323/317 20/322/316
f 214/317/311 220/339/333 157/301/295
f 12/293/287 50/323/317 57/326/320
f 218/327/321 215/324/318 138/292/286
f 57/326/320 59/320/314 6/294/288
f 139/291/285 229/321/315 218/327/321
f 250/340/334 242/303/297 239/329/323
f 88/336/330 80/341/335 84/306/300
f 250/340/334 257/342/336 242/303/297
f 242/303/297 258/343/337 237/334/328
f 84/306/300 82/344/338 86/332/326
f 80/341/335 88/336/330 79/345/339
f 84/306/300 80/341/335 82/344/338
f 257/342/336 258/343/337 242/303/297
f 53/346/340 59/320/314 57/326/320
f 329/347/341 237/334/328 258/343/337
f 234/348/342 241/328/322 236/325/319
f 73/349/343 78/350/344 87/330/324
f 240/309/303 241/328/322 234/348/342
f 256/351/345 238/333/327 240/309/303
f 53/346/340 51/352/346 59/320/314
f 229/321/315 219/353/347 218/327/321
f 73/349/343 87/330/324 89/331/325
f 236/325/319 328/354/348 259/355/349
f 81/356/350 90/314/308 85/335/329
f 234/348/342 236/325/319 259/355/349
f 54/357/351 82/344/338 80/341/335
f 218/327/321 228/358/352 215/324/318
f 219/353/347 262/359/353 218/327/321
f 329/347/341 258/343/337 261/360/354
f 262/359/353 233/361/355 218/327/321
f 328/354/348 260/362/356 259/355/349
f 232/363/357 256/351/345 240/309/303
f 83/364/358 90/314/308 81/356/350
f 83/364/358 89/331/325 90/314/308
f 240/309/303 234/348/342 232/363/357
f 58/365/359 50/323/317 49/366/360
f 49/366/360 53/367/361 58/365/359
f 56/368/362 50/323/317 215/324/318
f 227/369/363 214/317/311 55/337/331
f 214/317/311 227/369/363 223/370/364
f 260/362/356 230/371/365 259/355/349
f 55/337/331 46/318/312 47/372/366
f 73/349/343 89/331/325 74/373/367
f 83/364/358 76/374/368 89/331/325
f 49/366/360 50/323/317 48/375/369
f 50/323/317 56/368/362 48/375/369
f 89/331/325 76/374/368 74/373/367
f 231/376/370 232/363/357 234/348/342
f 224/377/371 215/324/318 228/358/352
f 47/372/366 44/378/372 55/337/331
f 226/379/373 223/370/364 227/369/363
f 44/378/372 47/372/366 40/380/374
f 235/381/375 223/370/364 226/379/373
f 40/380/374 47/372/366 77/382/376
f 75/383/377 49/366/360 39/384/378
f 56/368/362 215/324/318 221/385/379
f 215/324/318 224/377/371 221/385/379
f 227/369/363 326/386/380 226/379/373
f 55/337/331 45/387/381 227/369/363
f 41/388/382 49/366/360 48/375/369
f 39/384/378 49/366/360 41/388/382
f 221/385/379 224/377/371 225/389/383
f 56/368/362 69/390/384 48/375/369
f 45/387/381 55/337/331 44/378/372
f 44/378/372 40/380/374 537/391/385
f 222/392/386 226/379/387 327/393/388
f 227/369/363 540/394/389 326/386/380
f 227/369/363 45/387/381 217/395/390
f 43/396/391 45/387/381 44/378/372
f 130/397/392 56/368/362 221/385/379
f 217/395/390 540/394/389 227/369/363
f 222/392/386 327/393/388 540/398/393
f 43/396/391 44/378/372 537/391/385
f 181/399/394 72/400/395 134/401/396
f 68/402/397 70/403/398 177/404/399
f 538/405/400 136/406/401 131/407/402
f 48/375/369 69/390/384 41/388/382
f 71/408/403 63/409/404 536/410/405
f 136/406/401 216/411/406 67/412/407
f 66/413/408 42/414/409 63/409/404
f 538/405/400 539/415/410 136/406/401
f 67/412/407 216/411/406 542/416/411
f 136/406/401 539/415/410 216/411/406
f 541/417/411 42/414/409 66/413/408
f 536/410/405 63/409/404 42/414/409
f 174/418/412 133/419/413 137/420/414
f 190/421/415 181/399/394 134/401/396
f 284/422/416 68/402/397 177/404/399
f 135/423/417 64/424/418 211/425/419
f 137/420/414 135/423/420 210/426/421
f 177/404/399 178/427/422 159/428/423
f 213/429/424 65/430/425 62/431/426
f 161/432/427 180/433/428 166/434/429
f 264/435/430 177/404/399 159/428/423
f 179/436/431 160/437/432 165/438/433
f 169/439/434 132/440/435 175/441/436
f 275/442/437 68/402/397 284/422/416
f 263/443/438 162/444/439 278/445/440
f 187/446/441 160/437/432 179/436/431
f 189/447/442 166/434/429 180/433/428
f 177/404/399 264/435/430 284/422/416
f 212/448/443 211/425/419 64/424/418
f 210/426/421 174/418/412 137/420/414
f 278/445/440 162/444/439 188/449/444
f 62/431/426 276/450/445 213/429/424
f 284/422/446 263/443/438 268/451/447
f 323/452/448 278/445/440 188/449/444
f 321/453/449 186/454/450 298/453/451
f 320/454/452 299/455/453 283/454/454
f 322/456/455 298/453/456 296/456/457
f 278/445/440 297/457/458 163/458/459
f 284/422/416 267/459/460 275/442/437
f 185/460/461 164/461/462 179/436/431
f 278/445/440 163/458/459 282/462/463
f 176/463/464 179/436/431 165/438/433
f 263/443/438 278/445/440 277/464/465
f 268/451/447 263/443/438 277/464/465
f 571/465/466 205/466/467 567/467/468
f 164/461/462 185/460/461 184/468/469
f 185/460/461 179/436/431 176/463/464
f 567/467/468 324/469/470 565/470/471
f 325/471/472 213/472/473 295/473/474
f 276/450/445 532/474/475 213/429/424
f 265/475/476 289/476/477 269/477/478
f 170/478/479 199/479/480 167/480/481
f 535/481/482 533/482/483 273/483/484
f 565/470/471 324/469/470 566/484/485
f 195/485/486 571/465/466 572/486/487
f 530/487/488 173/488/489 526/489/490
f 208/490/491 213/472/473 325/471/472
f 567/467/468 205/466/467 207/491/492
f 288/492/493 292/493/494 269/494/495
f 567/467/468 207/491/492 324/469/470
f 170/478/479 528/495/496 199/479/480
f 571/465/466 195/485/486 205/466/467
f 206/496/497 527/497/498 209/498/499
f 291/499/500 268/451/447 277/464/465
f 165/438/433 196/500/501 176/463/464
f 185/460/461 176/463/464 182/501/502
f 279/502/503 278/445/440 282/462/463
f 568/503/504 195/485/486 572/486/487
f 281/504/505 277/464/465 278/445/440
f 559/505/506 569/506/507 573/507/508
f 566/484/485 285/508/509 563/509/510
f 566/484/485 324/469/470 285/508/509
f 528/495/488 202/510/511 200/511/512
f 185/460/461 182/501/502 194/512/513
f 573/507/508 561/513/514 559/505/506
f 279/502/503 281/504/505 278/445/440
f 282/462/463 193/514/515 279/502/503
f 197/515/516 568/503/504 570/516/517
f 563/509/510 286/517/518 564/518/519
f 569/506/507 559/505/506 560/519/520
f 568/503/504 197/515/516 195/485/486
f 285/508/509 286/517/518 563/509/510
f 562/520/521 564/518/519 192/521/522
f 570/516/517 562/520/523 191/522/524
f 196/500/501 198/523/525 176/463/464
f 183/524/526 176/463/464 198/523/525
f 287/525/527 281/504/505 280/526/528
f 287/525/527 277/464/465 281/504/505
f 193/514/515 280/526/528 279/502/503
f 559/505/506 561/513/514 557/527/529
f 564/518/519 286/517/518 192/521/522
f 191/522/524 197/515/516 570/516/517
f 182/528/530 183/524/526 198/523/525
f 287/525/527 280/526/528 193/514/515
f 193/529/531 182/528/530 198/523/525
f 547/530/532 553/531/533 556/532/534
f 557/527/529 552/533/535 559/505/506
f 547/530/532 548/534/536 544/535/537
f 543/536/538 548/534/536 549/537/539
f 558/538/540 560/519/520 559/505/506
f 549/537/539 545/539/541 550/540/542
f 551/541/543 546/542/544 560/519/520
f 553/531/533 547/530/532 544/535/537
f 548/534/536 543/536/538 544/535/537
f 549/537/539 550/540/542 543/536/538
f 558/538/540 551/541/543 560/519/520
f 554/543/545 551/541/543 558/538/540
f 544/535/537 555/544/546 553/531/533
f 552/533/535 554/543/545 559/505/506
f 543/536/538 555/544/546 544/535/537
f 559/505/506 554/543/545 558/538/540
f 543/536/538 550/540/542 555/544/546
l 266 274
l 172 531
l 184 194
l 388 521
l 112 113
l 290 294
l 296 299
l 270 534
l 201 204
l 384 390
l 26 519
l 313 316
l 271 272
l 293 534
l 429 518
l 128 129
l 110 114
l 100 106
l 171 168
l 203 529
