# Blender 5.0.1
# www.blender.org
mtllib 531 faces NO tris.mtl
o bmyst
v -0.005341 -0.112838 -0.204638
v -0.005341 -0.112838 -0.204638
v -0.030815 0.022965 -0.181403
v -0.030815 0.022965 -0.181403
v -0.030815 0.022965 -0.181403
v 0.008271 0.036889 -0.222951
v 0.004850 -0.156654 -0.160358
v -0.046563 -0.092931 -0.173926
v -0.048997 -0.150716 -0.102760
v -0.049188 -0.085480 -0.172254
v -0.049188 -0.085480 -0.172254
v -0.049188 -0.085480 -0.172254
v -0.053689 0.115268 -0.130956
v -0.041217 0.100305 -0.127835
v -0.041217 0.100305 -0.127835
v -0.010955 -0.191487 -0.002093
v -0.053884 -0.168356 0.003098
v -0.053884 -0.168356 0.003098
v -0.053884 -0.168356 0.003098
v -0.051976 -0.169439 0.097800
v -0.050252 0.138994 0.000908
v -0.050252 0.138994 0.000908
v -0.050252 0.138994 0.000908
v -0.015973 0.166910 0.003181
v -0.143574 0.131275 -0.000704
v -0.143574 0.131275 -0.000704
v -0.143574 0.131275 -0.000704
v -0.143574 0.131275 -0.000704
v -0.143574 0.131275 -0.000704
v -0.143574 0.131275 -0.000704
v -0.149003 0.123002 -0.043527
v -0.149003 0.123002 -0.043527
v -0.149003 0.123002 -0.043527
v -0.149003 0.123002 -0.043527
v -0.133808 0.083392 -0.137468
v -0.133808 0.083392 -0.137468
v -0.133808 0.083392 -0.137468
v -0.120976 0.022429 -0.198050
v -0.121542 0.022596 -0.188481
v -0.120976 0.022429 -0.198050
v 0.564269 -0.049064 -0.170729
v 0.564269 -0.049064 -0.170729
v 0.593028 -0.013725 -0.113875
v 0.641283 -0.112608 -0.072839
v 0.638929 -0.109331 -0.071704
v 0.569507 -0.101632 -0.110060
v 0.643098 -0.154081 -0.000454
v 0.386104 -0.124063 -0.183652
v 0.502172 -0.113739 -0.202159
v 0.306145 -0.147159 -0.135367
v 0.586998 0.043060 -0.078473
v 0.516205 -0.007923 -0.219310
v 0.382556 0.130456 -0.079932
v 0.339291 -0.086947 -0.185984
v 0.288204 -0.040437 -0.188683
v 0.352721 0.000442 -0.195601
v 0.352721 0.000442 -0.195601
v 0.463676 -0.179720 -0.002769
v 0.574096 0.058036 0.002876
v 0.391718 0.044144 -0.169194
v 0.391880 0.044580 -0.169302
v 0.286230 -0.042001 -0.191811
v 0.054412 -0.059992 -0.201366
v 0.054412 -0.059992 -0.201366
v 0.619501 -0.037059 -0.062016
v 0.627610 -0.041429 -0.053322
v 0.614725 -0.082968 0.000752
v 0.614725 -0.082968 0.000752
v 0.614725 -0.082968 0.000752
v 0.614725 -0.082968 0.000752
v 0.621550 -0.033843 -0.059970
v 0.577503 0.038827 -0.037527
v 0.577503 0.038827 -0.037527
v 0.607313 0.001608 -0.063514
v 0.607313 0.001608 -0.063514
v 0.569288 0.049747 -0.000343
v 0.569288 0.049747 -0.000343
v 0.481263 -0.122969 -0.196607
v 0.528850 -0.101959 -0.214986
v 0.544209 -0.048236 -0.225183
v 0.547580 -0.045759 -0.229284
v 0.544209 -0.048236 -0.225183
v 0.389043 -0.125227 -0.183536
v 0.347458 -0.114634 -0.213816
v 0.338868 -0.087543 -0.187514
v 0.356873 0.010739 -0.200543
v 0.349927 -0.002650 -0.208755
v 0.398912 0.016797 -0.211375
v 0.398912 0.016797 -0.211375
v 0.515129 -0.008088 -0.218922
v 0.225844 -0.050723 -0.237794
v 0.290398 -0.025949 -0.262578
v 0.252083 -0.015319 -0.274847
v 0.258733 -0.111308 -0.315138
v 0.248576 -0.119411 -0.281135
v 0.252228 -0.109469 -0.291228
v 0.316118 -0.050994 -0.321584
v 0.275130 -0.012602 -0.305200
v -0.032109 -0.086363 -0.434404
v -0.024989 -0.095169 -0.361243
v 0.108405 -0.116628 -0.324947
v -0.036768 -0.080715 -0.381957
v -0.001942 0.018157 -0.364278
v -0.001875 0.006706 -0.378940
v -0.023624 -0.012224 -0.420401
v 0.017741 -0.053228 -0.440236
v -0.033447 -0.017220 -0.371491
v -0.030190 -0.031156 -0.405260
v -0.029020 -0.012686 -0.371760
v -0.029020 -0.012686 -0.371760
v -0.029020 -0.012686 -0.371760
v -0.029020 -0.012686 -0.371760
v -0.029020 -0.012686 -0.371760
v -0.030756 -0.080255 -0.383608
v -0.042288 -0.089413 -0.371125
v -0.030756 -0.080255 -0.383608
v -0.030756 -0.080255 -0.383608
v -0.112921 -0.000579 -0.410547
v -0.111317 -0.093089 -0.441404
v -0.140812 -0.090584 -0.445668
v -0.168997 0.000745 -0.425651
v -0.117425 0.004890 -0.428160
v -0.170642 -0.003937 -0.447225
v -0.170347 -0.000555 -0.426033
v -0.117436 0.001849 -0.427396
v -0.185634 -0.001311 -0.420740
v -0.065276 0.003002 -0.388701
v -0.080035 0.008757 -0.392191
v -0.102920 0.010576 -0.420500
v -0.101662 0.007638 -0.384130
v -0.148868 0.004464 -0.395634
v -0.150069 0.006394 -0.393047
v -0.149359 0.006362 -0.396063
v -0.134812 -0.012757 -0.382561
v -0.139611 -0.009025 -0.378532
v -0.140722 0.001947 -0.408038
v -0.175069 -0.082663 -0.426236
v -0.188900 -0.084871 -0.429818
v -0.177110 -0.088561 -0.430716
v -0.216749 -0.026757 -0.418329
v -0.212288 -0.003907 -0.410987
v -0.180822 -0.076614 -0.424365
v -0.207603 -0.033754 -0.409984
v -0.140722 0.001947 -0.408038
v -0.041916 -0.072048 -0.381671
v 0.606011 0.000976 0.067577
v 0.606011 0.000976 0.067577
v 0.606011 0.000976 0.067577
v 0.606011 0.000976 0.067577
v 0.606011 0.000976 0.067577
v 0.614907 -0.063057 0.040233
v 0.614907 -0.063057 0.040233
v 0.576131 0.038655 0.036332
v 0.617227 -0.033240 0.061565
v 0.617227 -0.033240 0.061565
v -0.052911 0.109369 0.142732
v -0.000817 -0.166735 0.153314
v 0.007208 0.033207 0.225225
v -0.042316 0.100303 0.127550
v -0.042316 0.100303 0.127550
v -0.046266 0.022966 0.188723
v -0.046266 0.022966 0.188723
v -0.046266 0.022966 0.188723
v -0.051423 -0.165260 0.102721
v -0.047861 -0.086098 0.183185
v -0.047861 -0.086098 0.183185
v -0.047861 -0.086098 0.183185
v -0.047861 -0.086098 0.183185
v -0.132146 0.030125 0.209826
v -0.133275 0.030514 0.205219
v -0.133275 0.030514 0.205219
v -0.150414 0.125466 0.063200
v -0.150414 0.125466 0.063200
v -0.154187 0.091774 0.149911
v -0.153863 0.087306 0.152515
v 0.021139 -0.075692 0.222271
v 0.025950 -0.078877 0.225436
v 0.634100 0.103901 -0.005296
v 0.645679 0.099860 0.000253
v 0.637057 0.103637 0.003989
v 0.645801 0.100221 0.001192
v 0.712453 0.122418 -0.000791
v 0.709112 0.122964 0.000029
v 0.669269 0.050166 0.055934
v 0.706687 0.016790 0.080473
v 0.710694 0.017778 0.070146
v 0.708578 0.018032 0.069149
v 0.710694 0.017778 0.070146
v 0.714405 0.018231 0.057381
v 0.704355 -0.001917 0.074251
v 0.722205 -0.003641 0.077816
v 0.708738 -0.007224 0.081699
v 0.705711 -0.006783 0.068543
v 0.705711 -0.006783 0.068543
v 0.765471 -0.010787 0.047072
v 0.705711 -0.006783 0.068543
v 0.761694 0.082397 0.061082
v 0.615024 0.081076 -0.014424
v 0.640588 0.085896 0.000142
v 0.688059 0.103289 0.036646
v 0.637232 0.055421 0.000567
v 0.637944 0.042566 -0.005424
v 0.770350 0.113431 0.000986
v 0.764595 0.092566 0.015016
v 0.739296 0.114816 0.019892
v 0.737271 0.112806 0.018647
v 0.690090 0.102077 0.032804
v 0.680233 0.114665 0.000011
v 0.682790 0.120856 -0.000111
v 0.679424 0.013399 0.060852
v 0.679424 0.013399 0.060852
v 0.780272 0.123082 0.001815
v 0.780272 0.123082 0.001815
v 0.780533 0.120569 0.000772
v 0.741256 0.124826 -0.000104
v 0.728102 0.132268 -0.000941
v 0.756008 -0.023119 0.081068
v 0.762524 -0.001169 0.081139
v 0.772054 0.099581 0.051600
v 0.781918 0.102713 0.046650
v 0.762520 -0.001239 0.080326
v 0.762520 -0.001239 0.080326
v 0.762520 -0.001239 0.080326
v 0.751995 -0.029515 0.088474
v 0.750957 -0.028931 0.083999
v 0.751995 -0.029515 0.088474
v 0.743394 -0.067708 0.047496
v 0.739893 -0.088664 0.004434
v 0.741969 -0.078835 0.001745
v 0.741969 -0.078835 0.001745
v 0.712969 -0.054938 0.045477
v 0.712969 -0.054938 0.045477
v 0.712969 -0.054938 0.045477
v 0.706526 -0.068106 0.001714
v 0.706526 -0.068106 0.001714
v 0.706526 -0.068106 0.001714
v 0.309256 -0.147406 0.130694
v 0.469643 0.096307 0.105410
v 0.639037 -0.113650 0.070790
v 0.637131 -0.111263 0.068918
v 0.387988 -0.122543 0.179402
v 0.308139 0.010208 0.184870
v 0.354257 -0.085802 0.180428
v 0.295714 -0.055940 0.182075
v 0.593868 -0.013579 0.110744
v 0.638625 -0.005294 0.097964
v 0.479261 -0.121640 0.189174
v 0.545042 -0.047589 0.228119
v 0.564268 -0.049068 0.167127
v 0.564268 -0.049068 0.167127
v 0.550193 -0.115432 0.113707
v 0.471212 0.015001 0.212584
v 0.295767 -0.061320 0.190795
v 0.481280 -0.127273 0.190224
v 0.483496 0.005468 0.204042
v 0.409097 0.021377 0.211430
v 0.398911 0.018269 0.207772
v 0.547704 -0.046815 0.232968
v 0.544208 -0.048240 0.228973
v 0.234185 -0.121278 0.295345
v 0.249995 -0.118560 0.291678
v 0.264217 -0.004563 0.276684
v 0.196281 -0.020950 0.304039
v 0.252403 -0.114506 0.326645
v 0.311435 -0.009229 0.300633
v 0.251469 -0.052808 0.358566
v 0.207252 -0.057833 0.259549
v -0.014002 -0.012656 0.433222
v -0.008703 0.005547 0.383229
v -0.005187 0.007188 0.386612
v 0.006530 -0.108929 0.427481
v -0.020983 -0.107446 0.363950
v -0.015196 -0.084015 0.399683
v -0.021638 -0.079647 0.449263
v 0.089881 -0.119448 0.341039
v 0.089881 -0.119448 0.341039
v 0.264024 -0.003687 0.278582
v -0.025266 -0.080254 0.396032
v -0.025063 -0.084817 0.392755
v -0.027552 -0.075636 0.395817
v -0.019526 -0.012685 0.384184
v -0.019526 -0.012685 0.384184
v -0.020868 -0.027257 0.406188
v 0.364652 -0.015882 0.193419
v 0.364915 -0.018738 0.194938
v 0.355358 -0.079798 0.183225
v 0.533558 -0.101168 0.210726
v 0.527869 -0.096110 0.205766
v 0.387699 -0.126591 0.179664
v 0.387699 -0.126591 0.179664
v 0.364230 -0.016860 0.193070
v 0.681790 0.036114 -0.057388
v 0.680488 0.040371 -0.063538
v 0.710744 0.017345 -0.069027
v 0.710744 0.017345 -0.069027
v 0.710744 0.017345 -0.069027
v 0.710744 0.017345 -0.069027
v 0.703720 -0.001424 -0.066871
v 0.707096 -0.007226 -0.080556
v 0.706113 -0.002526 -0.075890
v 0.705761 -0.006688 -0.067448
v 0.705761 -0.006688 -0.067448
v 0.705761 -0.006688 -0.067448
v 0.705920 0.002875 -0.072578
v 0.705761 -0.006688 -0.067448
v 0.705761 -0.006688 -0.067448
v 0.769867 0.062005 -0.068535
v 0.689655 0.104661 -0.033895
v 0.653495 0.037450 -0.031732
v 0.765755 0.096708 -0.013420
v 0.764595 0.092566 -0.014080
v 0.762503 0.084842 -0.056729
v 0.727722 0.131871 0.000011
v 0.690707 0.103975 -0.030940
v 0.679488 0.013522 -0.059771
v 0.761591 0.002378 -0.076316
v 0.784030 0.107046 -0.056351
v 0.778538 0.097355 -0.057022
v 0.761573 -0.002054 -0.075924
v 0.761573 -0.002054 -0.075924
v 0.761573 -0.002054 -0.075924
v 0.761573 -0.002054 -0.075924
v 0.749463 -0.029651 -0.080557
v 0.747719 -0.030251 -0.076648
v 0.748840 -0.029828 -0.076191
v 0.717691 -0.054938 -0.044207
v 0.717691 -0.054938 -0.044207
v 0.691334 0.116584 0.000455
v 0.696429 0.111110 -0.000593
v 0.696019 0.111943 0.001030
v 0.692259 0.113976 0.013533
v 0.692765 0.115524 -0.009178
v -0.118069 -0.091413 0.450439
v -0.146197 -0.092344 0.454998
v -0.112762 -0.000874 0.417995
v -0.117412 0.003949 0.435352
v -0.117437 0.001850 0.434736
v -0.208088 -0.001917 0.419055
v -0.168273 0.001213 0.434120
v -0.170643 -0.003936 0.454564
v -0.197402 -0.011918 0.414010
v -0.103612 0.010290 0.427869
v -0.091191 0.010687 0.394082
v -0.134166 -0.012451 0.389595
v -0.139146 -0.008909 0.383986
v -0.173846 -0.085595 0.440308
v -0.172731 -0.084445 0.434866
v -0.202611 -0.074905 0.420445
v -0.184955 -0.073301 0.429546
v -0.185023 -0.072468 0.428653
v -0.148869 0.004467 0.402974
v -0.141608 -0.003752 0.411228
v -0.216750 -0.026756 0.425668
v -0.140723 0.001951 0.415378
v 0.693938 0.093389 0.002614
v 0.693938 0.093389 0.002614
v 0.693938 0.093389 0.002614
v 0.693938 0.093389 0.002614
v 0.693938 0.093389 0.002614
v 0.693938 0.093389 0.002614
v 0.744855 -0.067147 -0.044052
v 0.749039 -0.032858 -0.071743
v 0.584751 -0.066346 0.114048
v 0.584751 -0.066346 0.114048
v 0.345837 -0.127976 0.235276
v 0.345837 -0.127976 0.235276
v -0.163016 -0.161072 0.113035
v -0.450025 0.075644 0.098416
v -0.242444 0.002489 0.230059
v -0.205559 -0.106376 0.201834
v -0.450549 0.084433 0.187357
v -0.297575 0.016017 0.014472
v -0.297575 0.016017 0.014472
v -0.297575 0.016017 0.014472
v -1.005720 0.039283 0.115635
v -1.004659 0.055103 0.116995
v -1.006794 0.012197 0.258202
v -1.006730 0.054555 0.247818
v -1.005213 -0.021164 0.130417
v -1.005153 -0.029344 0.250942
v -0.921041 0.063673 0.141392
v -0.921041 0.063673 0.141392
v -0.917161 0.053474 0.191518
v -0.926420 0.049665 0.209660
v -0.855538 -0.027542 0.134522
v -0.855538 -0.027542 0.134522
v -0.855538 -0.027542 0.134522
v -0.852498 -0.050573 0.238499
v -0.852498 -0.050573 0.238499
v -0.852498 -0.050573 0.238499
v -0.999650 -0.142752 0.162910
v -1.000825 -0.108551 0.130255
v -1.002318 -0.118044 0.226000
v -1.002318 -0.118044 0.226000
v -0.867176 -0.144257 0.137004
v -0.873219 -0.127767 0.139066
v -0.873219 -0.127767 0.139066
v -0.873219 -0.127767 0.139066
v -0.978736 -0.149373 0.148725
v -0.976858 -0.134129 0.132461
v -0.985822 -0.150266 0.223756
v -0.985660 -0.133404 0.233447
v -1.000673 0.162667 0.133628
v -1.002006 0.153131 0.139266
v -1.004167 0.167541 0.205169
v -1.004317 0.155905 0.224380
v -0.966936 0.125780 0.235971
v -0.806622 -0.019503 0.061188
v -0.806622 -0.019503 0.061188
v -0.713813 -0.049871 0.275948
v -0.710493 -0.050410 0.277690
v -0.778921 -0.156613 0.119682
v -0.538769 -0.152542 0.200747
v -0.478855 -0.057516 0.050127
v -0.481281 -0.062066 0.057643
v -0.476686 -0.035407 0.237791
v -0.417338 -0.033768 0.237155
v -0.476715 -0.028460 0.260033
v -0.427211 -0.158165 0.093275
v -0.429973 -0.048656 0.043089
v -0.429973 -0.048656 0.043089
v -0.819595 0.107954 0.184091
v -0.519582 -0.044060 0.050302
v -0.999462 -0.145878 0.173344
v -0.286500 -0.028690 0.005348
v -0.286513 -0.028677 0.007215
v -0.286513 -0.028677 0.007215
v -0.286513 -0.028677 0.007215
v -0.286502 -0.028639 0.005355
v -0.185960 -0.156134 0.007920
v -0.185960 -0.156134 0.007920
v -0.185960 -0.156134 0.007920
v -0.185960 -0.156134 0.007920
v -0.936974 -0.033683 0.234905
v -0.936974 -0.033683 0.234905
v -0.936974 -0.033683 0.234905
v -0.933946 -0.120045 0.232444
v -0.933946 -0.120045 0.232444
v -0.933946 -0.120045 0.232444
v -0.937227 -0.121133 0.145432
v -0.935535 -0.119356 0.131256
v -0.938937 -0.147393 0.173343
v -0.938937 -0.147393 0.173343
v -0.210267 -0.140063 -0.100345
v -0.290142 0.093308 -0.033875
v -0.200621 0.001026 -0.211723
v -0.200621 0.001026 -0.211723
v -0.285282 0.106786 -0.135758
v -0.293190 0.016359 -0.000400
v -0.293190 0.016359 -0.000400
v -0.293190 0.016359 -0.000400
v -0.293190 0.016359 -0.000400
v -0.634815 -0.007171 -0.070319
v -0.634815 -0.007171 -0.070319
v -0.763252 -0.036251 -0.264452
v -0.813337 -0.037858 -0.270847
v -0.789913 -0.166102 -0.104338
v -0.713074 -0.130933 -0.253652
v -0.475759 -0.075074 -0.044737
v -0.480765 -0.067870 -0.039048
v -0.446348 -0.029067 -0.231373
v -0.423911 -0.024654 -0.237884
v -0.413711 -0.139105 -0.104284
v -0.481676 -0.095758 -0.220538
v -0.429736 -0.061763 -0.039089
v -0.429736 -0.061763 -0.039089
v -0.429736 -0.061763 -0.039089
v -0.455579 0.084112 -0.175844
v -0.658597 0.067785 -0.161468
v -0.286513 -0.028670 0.003479
v -0.286513 -0.028670 0.003479
v -0.286513 -0.028670 0.003479
v -0.286513 -0.028670 0.003479
v -0.286513 -0.028670 0.003479
v -0.965148 0.167499 0.182098
v -1.003163 0.172211 0.181901
v -0.841046 0.053857 0.253669
v -0.841046 0.053857 0.253669
v -0.850091 0.045116 0.077951
v -0.850661 0.044555 0.077246
v -0.977247 -0.028958 0.262438
v -0.868021 -0.035299 0.257229
v -0.921205 0.075847 0.140668
v -0.921205 0.075847 0.128094
v -0.921205 0.075847 0.128094
v -0.922002 0.068598 0.234451
v -0.927837 0.056008 0.227214
v -0.922002 0.068598 0.234451
v -0.966445 -0.044795 0.109363
v -0.966445 -0.044795 0.109363
v -0.966445 -0.044795 0.109363
v -0.978956 -0.033554 0.252876
v -0.978956 -0.033554 0.252876
v -1.005954 0.048723 -0.109637
v -1.004659 0.055103 -0.105954
v -1.005152 -0.029344 -0.240094
v -1.006884 0.055254 -0.247541
v -1.006730 0.072008 -0.240941
v -1.005212 -0.017925 -0.119569
v -0.920707 0.060499 -0.130544
v -0.920707 0.060499 -0.130544
v -0.852497 -0.050576 -0.227650
v -0.852497 -0.050576 -0.227650
v -0.852497 -0.050576 -0.227650
v -0.855538 -0.024303 -0.123673
v -0.855538 -0.024303 -0.123673
v -0.855538 -0.024303 -0.123673
v -0.928999 0.045330 -0.172382
v -0.929575 0.048700 -0.205692
v -1.000185 0.164032 -0.124486
v -1.002005 0.153131 -0.128419
v -1.004157 0.167966 -0.194115
v -1.003163 0.172211 -0.171053
v -0.966759 0.167111 -0.191834
v -1.004316 0.155904 -0.213532
v -0.935314 -0.033683 -0.237442
v -0.935314 -0.033683 -0.237442
v -0.935314 -0.033683 -0.237442
v -1.000825 -0.108551 -0.119407
v -1.000825 -0.108551 -0.119407
v -1.002317 -0.118045 -0.215152
v -1.002317 -0.118045 -0.215152
v -0.936955 -0.139848 -0.184481
v -0.933945 -0.115863 -0.218785
v -0.933945 -0.115863 -0.218785
v -0.873218 -0.127770 -0.128218
v -0.873218 -0.127770 -0.128218
v -0.873218 -0.127770 -0.128218
v -0.921205 0.059522 -0.121071
v -0.921205 0.059522 -0.121071
v -0.921205 0.059522 -0.121071
v -0.921205 0.059522 -0.121071
v -0.921205 0.059522 -0.121071
v -0.821648 0.105157 -0.163367
v -0.821648 0.105157 -0.163367
v -0.829754 0.044555 -0.104941
v -0.829754 0.044555 -0.104941
v -0.778655 0.053857 -0.244991
v -0.922001 0.043082 -0.234523
v -0.922001 0.043082 -0.234523
v -0.922001 0.043082 -0.234523
v -0.982606 -0.161442 -0.165310
v -0.986718 -0.126902 -0.212272
v -0.986718 -0.126902 -0.212272
v -0.974307 -0.045321 -0.094999
v -0.982333 -0.117413 -0.113807
v -0.801612 -0.061207 -0.074180
v -0.801612 -0.061207 -0.074180
v -0.970815 -0.044798 -0.110850
v -0.999462 -0.145878 -0.162496
v -0.999462 -0.145878 -0.162496
v -0.935534 -0.119356 -0.120407
v -0.937319 -0.116377 -0.123635
v -0.850721 -0.127830 -0.175430
v -0.972431 -0.061034 -0.242810
v -0.972431 -0.061034 -0.242810
v -0.972431 -0.061034 -0.242810
v -0.981278 -0.158238 0.177419
v -0.931390 0.103736 0.182230
v -0.753034 0.066723 0.181853
v -0.981772 -0.154957 -0.161418
v -0.928866 0.091395 -0.178111
v -0.928866 0.091395 -0.178111
v -0.849780 0.079146 -0.170652
v -0.849780 0.079146 -0.170652
v -0.419477 0.087314 -0.097534
v -0.908774 0.058309 -0.177677
v -0.256269 0.062784 0.012739
v -0.256269 0.062784 0.012739
v -0.256269 0.062784 0.012739
v -0.256269 0.062784 0.012739
v -0.256269 0.062784 0.012739
v -0.256549 0.061095 0.000682
v -0.256549 0.061095 0.000682
v -0.256549 0.061095 0.000682
v -0.256549 0.061095 0.000682
v -0.256549 0.061095 0.000682
v 0.752825 -0.028423 0.076689
v 0.752825 -0.028423 0.076689
v 0.752825 -0.028423 0.076689
v 0.732516 -0.027094 0.088622
v 0.732516 -0.027094 0.088622
v 0.732516 -0.027094 0.088622
v 0.732516 -0.027094 0.088622
v 0.747445 -0.031484 -0.071091
v 0.747445 -0.031484 -0.071091
v 0.727457 -0.024751 -0.085313
v 0.727457 -0.024751 -0.085313
v 0.727457 -0.024751 -0.085313
v 0.467809 -0.155277 0.061190
v 0.475175 -0.149136 -0.062852
v 0.626543 -0.007006 0.100213
v 0.621047 -0.010161 -0.106620
v 0.633071 -0.005447 -0.095449
v 0.640591 -0.005538 -0.103292
v 0.640844 -0.045283 -0.091561
v 0.629140 -0.006131 0.088672
v 0.638193 -0.053397 0.093522
v 0.638985 -0.054179 0.094497
v 0.639830 -0.148458 -0.000164
v 0.639830 -0.148458 -0.000164
v 0.882957 0.069549 -0.050072
v 0.858933 -0.029070 -0.067083
v 0.835469 -0.087516 0.006789
v 0.760597 0.145931 0.005145
v 0.762161 0.148910 0.005825
v 0.712117 -0.075005 -0.061678
v 0.740988 0.019675 -0.100328
v 0.756502 0.124968 -0.069136
v 0.873217 0.102808 0.005779
v 0.873710 0.103201 0.004415
v 0.861843 -0.075180 0.002852
v 0.880875 -0.058313 0.005026
v 0.909511 0.041150 0.006120
v 0.908672 0.038931 0.004240
v 0.752633 -0.086330 -0.000113
v 0.704636 -0.091413 -0.001117
v 0.882641 0.070161 0.058626
v 0.846866 -0.062485 0.062309
v 0.821758 0.001216 0.087289
v 0.759019 0.131321 0.074887
v 0.706471 -0.081569 0.065477
v 0.763340 0.151236 0.004986
v 0.744202 0.036909 -0.099056
v 0.746621 0.122041 -0.062105
v 0.714394 -0.080353 -0.065625
v 0.719917 -0.036117 -0.089185
v 0.724063 -0.043684 -0.091133
v 0.707553 -0.100916 -0.006848
v 0.708612 -0.106149 -0.001495
v 0.741009 0.058921 0.108086
v 0.743050 0.059413 0.108309
v 0.756172 0.130140 0.073192
v 0.712819 -0.093609 0.069937
v 0.720742 -0.035424 0.107561
v 0.720560 -0.039384 0.105651
vn -0.7012 0.1004 0.7059
vn -0.6505 0.0486 -0.7580
vn -0.6123 -0.1364 0.7787
vn -0.6724 -0.1152 -0.7312
vn -0.5877 0.0454 0.8078
vn -0.6474 0.1537 -0.7465
vn -0.5662 0.5615 0.6034
vn -0.5695 0.5838 -0.5787
vn -0.7395 -0.0859 -0.6676
vn -0.7177 -0.0685 0.6930
vn -0.5767 0.8163 -0.0318
vn -0.5767 0.8163 0.0318
vn -0.6281 -0.3091 -0.7141
vn -0.6161 -0.3134 0.7226
vn -0.5705 0.5309 -0.6266
vn -0.5642 0.5186 0.6424
vn -0.6395 -0.4601 0.6159
vn -0.6308 -0.5010 -0.5925
vn -0.5952 -0.7990 -0.0861
vn -0.5824 -0.8097 0.0720
vn -0.6685 0.6498 0.3617
vn -0.5942 -0.0035 0.8043
vn 0.3442 0.4480 0.8251
vn 0.5242 0.7701 -0.3636
vn 0.5676 0.4403 -0.6957
vn -0.6686 0.6447 -0.3705
vn 0.5732 0.8194 0.0022
vn 0.5174 0.7383 -0.4327
vn 0.5082 0.4246 0.7493
vn -0.7431 0.2231 0.6308
vn -0.6862 -0.7258 -0.0487
vn -0.7152 -0.4447 0.5392
vn -0.6576 -0.4809 0.5799
vn 0.1173 -0.0007 0.9931
vn 0.0862 -0.0313 -0.9958
vn -0.6746 -0.4730 -0.5667
vn 0.0171 0.3834 -0.9234
vn 0.0120 -0.6402 -0.7682
vn -0.5842 -0.7412 -0.3306
vn -0.6943 -0.7188 0.0356
vn -0.7963 0.1308 -0.5906
vn -0.8356 -0.3417 -0.4302
vn -0.7923 -0.1120 0.5997
vn -0.6801 -0.3912 -0.6200
vn -0.3169 -0.9339 0.1652
vn 0.2760 -0.9177 0.2857
vn -0.5668 -0.3397 0.7505
vn 0.1667 -0.6562 0.7360
vn -0.6309 -0.5009 -0.5925
vn 0.0758 -0.6050 -0.7926
vn -0.7152 0.0728 -0.6951
vn -0.6267 -0.3523 0.6951
vn 0.1412 -0.7964 0.5880
vn 0.1052 -0.1512 0.9829
vn 0.4650 -0.7863 -0.4069
vn -0.4373 0.6114 0.6595
vn -0.5333 0.5156 -0.6707
vn 0.6661 0.3809 -0.6413
vn 0.6422 0.4083 -0.6488
vn 0.6222 0.4373 0.6493
vn -0.5105 0.8528 -0.1099
vn -0.5040 0.5748 0.6447
vn -0.5090 0.8491 0.1410
vn 0.7962 0.3045 0.5229
vn -0.4771 0.6323 -0.6104
vn 0.1449 -0.8503 -0.5060
vn -0.5309 0.0139 0.8473
vn -0.1139 -0.9933 -0.0196
vn -0.0286 -0.8687 0.4946
vn -0.0179 -0.5538 0.8324
vn -0.7239 0.1537 0.6725
vn 0.0822 -0.8558 0.5107
vn -0.6298 -0.0477 -0.7753
vn -0.3114 -0.3429 -0.8863
vn -0.6652 -0.5876 -0.4606
vn -0.8160 -0.3368 -0.4698
vn -0.7271 0.0841 -0.6814
vn 0.0877 -0.6459 -0.7583
vn 0.0356 -0.9978 -0.0564
vn 0.0289 -0.4264 -0.9041
vn 0.1738 -0.7647 -0.6205
vn 0.0469 -0.8428 0.5362
vn -0.0897 -0.9367 0.3384
vn -0.0240 -0.9120 -0.4094
vn -0.6025 0.6811 -0.4160
vn 0.0709 0.4508 -0.8898
vn 0.9090 0.4168 0.0019
vn 0.8473 0.5295 -0.0414
vn 0.2412 -0.6097 0.7551
vn 0.1055 -0.9864 0.1257
vn 0.4156 -0.7611 0.4981
vn 0.0486 -0.5618 0.8259
vn 0.4641 0.0707 0.8830
vn 0.0933 -0.0288 0.9952
vn -0.7468 0.2473 0.6174
vn -0.0781 0.5437 0.8357
vn -0.3887 0.6400 0.6628
vn 0.0273 -0.3178 -0.9477
vn 0.4016 -0.1216 -0.9077
vn -0.7646 0.3668 0.5300
vn 0.2208 0.9740 0.0510
vn 0.0872 0.5828 -0.8079
vn 0.3656 0.4089 -0.8361
vn 0.1722 0.4428 -0.8799
vn 0.7518 0.5696 0.3322
vn 0.1551 0.2715 0.9499
vn 0.4116 0.2392 0.8794
vn -0.4750 0.8713 -0.1232
vn -0.2417 0.9690 -0.0510
vn -0.4928 0.5370 -0.6846
vn -0.3887 0.6400 0.6629
vn -0.0342 0.7582 0.6511
vn -0.6494 0.0372 -0.7596
vn -0.4399 0.4929 -0.7507
vn 0.0671 0.1375 -0.9882
vn 0.6170 0.4281 0.6603
vn 0.8478 0.5297 -0.0257
vn 0.8444 0.5329 -0.0551
vn 0.8731 0.4759 0.1055
vn 0.7617 0.5009 -0.4109
vn 0.1604 -0.8476 -0.5059
vn 0.9087 0.4158 0.0364
vn 0.1216 0.0224 0.9923
vn 0.1299 -0.7821 0.6095
vn 0.8478 0.5297 -0.0256
vn 0.6356 -0.1185 0.7628
vn -0.0947 -0.0439 0.9945
vn 0.0815 0.6099 0.7883
vn -0.4598 0.7463 0.4812
vn -0.0682 0.2341 0.9698
vn 0.0346 0.2894 0.9566
vn 0.5224 0.0223 -0.8524
vn -0.0993 -0.8323 -0.5453
vn -0.0551 -0.0673 0.9962
vn -0.3886 0.6400 0.6629
vn -0.0781 0.5437 0.8356
vn -0.0456 -0.0221 -0.9987
vn 0.1450 0.5758 -0.8046
vn -0.2481 0.9652 0.0827
vn -0.2154 0.0879 -0.9726
vn -0.2481 0.9652 0.0828
vn 0.0982 0.1025 0.9899
vn -0.3085 0.0341 -0.9506
vn 0.2806 0.9593 0.0325
vn 0.0572 -0.8313 0.5528
vn -0.0264 -0.9782 0.2060
vn 0.0562 0.9984 0.0049
vn 0.0473 0.4742 0.8792
vn 0.0130 0.4334 0.9011
vn -0.1981 0.0095 -0.9801
vn -0.0453 0.1045 -0.9935
vn 0.1344 -0.6000 -0.7886
vn 0.0075 0.8886 0.4587
vn -0.0086 0.8626 -0.5058
vn -0.0570 -0.0495 0.9971
vn -0.0979 -0.1067 0.9895
vn -0.0943 -0.8610 -0.4997
vn -0.2107 0.7977 -0.5650
vn 0.0801 0.1516 -0.9852
vn 0.0669 0.0660 0.9956
vn 0.1163 0.1919 -0.9745
vn -0.2429 0.8329 0.4972
vn 0.0998 -0.0294 0.9946
vn -0.1325 -0.0838 -0.9876
vn -0.0548 -0.1813 0.9819
vn -0.2633 -0.0821 -0.9612
vn -0.1943 -0.1916 0.9621
vn -0.3164 0.7670 0.5583
vn -0.0227 0.9155 -0.4017
vn -0.6757 -0.1795 -0.7150
vn -0.6557 -0.2811 0.7007
vn 0.0388 -0.6443 -0.7638
vn 0.1227 -0.5159 0.8478
vn 0.0264 -0.9518 -0.3057
vn 0.0032 -0.9637 0.2671
vn -0.2954 0.2349 -0.9261
vn -0.2416 0.1663 -0.9560
vn -0.6838 -0.1664 -0.7104
vn -0.1966 -0.0222 -0.9802
vn -0.2917 0.2014 0.9351
vn -0.7014 -0.2150 0.6796
vn -0.2917 0.2013 0.9351
vn -0.1993 -0.1873 0.9619
vn -0.3176 0.2844 0.9046
vn 0.1248 0.2429 0.9620
vn 0.0889 0.1845 -0.9788
vn 0.2833 0.2299 0.9311
vn -0.7047 -0.2170 0.6755
vn -0.1594 -0.9825 -0.0965
vn -0.2013 -0.9765 -0.0769
vn 0.3414 0.3516 -0.8717
vn -0.5922 0.5761 -0.5634
vn -0.2416 0.1664 -0.9560
vn -0.5541 0.4877 -0.6746
vn -0.6838 -0.1665 -0.7105
vn -0.6320 0.5895 0.5031
vn -0.3319 0.7688 0.5466
vn -0.2916 0.2013 0.9351
vn -0.7015 -0.2149 0.6795
vn -0.1520 -0.9846 -0.0866
vn -0.5541 0.4876 -0.6747
vn -0.6319 0.5895 0.5031
vn -0.7014 -0.2149 0.6796
vn 0.0105 0.8805 0.4739
vn -0.0799 0.9703 -0.2284
vn -0.0986 0.9918 0.0808
vn -0.1572 0.9862 -0.0519
vn -0.3319 0.7687 0.5467
vn -0.1572 0.9862 -0.0520
vn -0.1107 -0.2654 0.9578
vn -0.3902 0.7488 0.5358
vn -0.6147 0.1036 0.7819
vn -0.5964 -0.0969 -0.7968
vn -0.4734 0.5457 -0.6914
vn 0.1565 0.3327 -0.9300
vn 0.0202 0.7958 -0.6052
vn 0.2190 -0.5108 -0.8313
vn -0.4309 0.1134 0.8952
vn -0.9097 0.4065 -0.0842
vn -0.8588 -0.2573 0.4429
vn -0.3180 -0.7442 0.5875
vn -0.0208 0.9003 0.4348
vn -0.0854 0.4605 -0.8835
vn -0.8413 0.5138 -0.1679
vn -0.2575 0.4506 0.8548
vn -0.2625 0.0613 -0.9630
vn -0.0130 0.8057 -0.5922
vn -0.2768 -0.4132 0.8675
vn 0.1575 0.3847 0.9095
vn -0.2389 -0.9517 0.1928
vn 0.2854 0.0799 0.9551
vn 0.2593 0.0744 -0.9629
vn -0.1607 -0.9676 -0.1949
vn -0.1209 0.7777 -0.6169
vn -0.0482 0.9865 -0.1568
vn 0.0201 0.7958 -0.6052
vn 0.1039 0.3411 -0.9343
vn 0.0827 0.1771 -0.9807
vn -0.0750 0.1889 0.9791
vn -0.0101 0.1282 -0.9917
vn 0.0995 0.8485 0.5198
vn -0.5007 -0.5704 -0.6511
vn -0.3446 -0.8550 0.3876
vn -0.9704 0.2273 -0.0814
vn -0.9654 0.2482 0.0796
vn -0.3442 -0.8463 -0.4066
vn -0.5459 -0.5188 0.6579
vn -0.3402 -0.8316 -0.4389
vn -0.2676 -0.9295 -0.2539
vn -0.3091 -0.9510 0.0005
vn -0.0387 0.6221 0.7819
vn -0.0354 0.9838 -0.1760
vn -0.5420 0.8403 0.0068
vn 0.2138 0.7974 0.5643
vn 0.1997 0.8008 -0.5647
vn -0.3203 0.9316 -0.1717
vn 0.2075 0.9782 -0.0012
vn -0.8651 -0.0151 -0.5014
vn -0.5729 0.7717 0.2761
vn -0.6884 -0.0270 0.7249
vn 0.1080 0.9888 0.1034
vn -0.2618 -0.9059 0.3329
vn -0.3159 0.7777 0.5434
vn -0.0483 0.9779 0.2033
vn 0.0762 0.7923 0.6053
vn -0.0483 0.9779 0.2032
vn -0.3699 0.9289 -0.0179
vn -0.2381 0.3278 0.9143
vn 0.1549 0.3970 0.9046
vn -0.3800 0.7407 -0.5540
vn 0.1040 0.3411 -0.9343
vn 0.0201 0.7958 -0.6053
vn -0.4155 0.2454 -0.8759
vn -0.3739 -0.9251 -0.0664
vn -0.3422 -0.2958 -0.8918
vn 0.3474 0.9121 0.2177
vn -0.3160 0.7777 0.5434
vn -0.3288 -0.3216 0.8880
vn -0.1900 0.3260 0.9261
vn 0.2017 0.3967 0.8955
vn -0.1830 -0.3951 0.9003
vn 0.0370 0.2567 -0.9658
vn 0.0017 -0.1932 0.9812
vn -0.3556 -0.3519 -0.8659
vn 0.0072 0.3566 -0.9342
vn -0.5043 0.2598 -0.8235
vn -0.4872 0.5911 0.6429
vn -0.5216 0.5408 -0.6599
vn -0.5317 0.6641 0.5256
vn -0.2748 -0.8735 -0.4019
vn 0.2185 0.0529 0.9744
vn -0.2910 0.8724 0.3928
vn -0.1856 -0.9147 -0.3590
vn -0.2596 -0.9642 -0.0537
vn -0.0396 -0.9578 0.2849
vn -0.3251 0.9457 0.0043
vn -0.0041 0.8794 0.4761
vn -0.2421 0.9698 0.0303
vn -0.2530 -0.3812 -0.8892
vn -0.1865 -0.7997 -0.5707
vn -0.0226 0.8723 -0.4884
vn -0.5335 0.5543 0.6389
vn -0.2788 -0.3636 0.8888
vn -0.6558 -0.6965 0.2912
vn -0.1887 -0.8189 0.5421
vn -0.1029 -0.3627 0.9262
vn -0.4056 0.1700 -0.8981
vn -0.2370 -0.4435 -0.8644
vn -0.2609 -0.3703 -0.8915
vn -0.0836 -0.3856 0.9189
vn -0.1238 -0.3672 0.9219
vn -0.2224 0.1937 0.9555
vn -0.1834 0.3522 0.9178
vn -0.2571 0.3032 -0.9176
vn -0.2848 0.9532 0.1020
vn 0.1374 0.6888 -0.7118
vn -0.4441 0.5620 0.6978
vn -0.7102 -0.5247 -0.4694
vn 0.0443 -0.4522 0.8908
vn -0.7687 -0.4501 -0.4545
vn -0.1445 -0.5240 -0.8393
vn -0.0919 -0.7026 -0.7056
vn -0.5944 -0.7267 0.3443
vn -0.8186 -0.2707 0.5065
vn -0.1475 -0.1940 0.9699
vn -0.4311 0.5271 -0.7324
vn 0.2979 0.6252 0.7214
vn -0.4351 0.8701 -0.2317
vn 0.1974 0.0460 -0.9792
vn -0.0855 -0.8140 0.5745
vn -0.2652 -0.0523 -0.9628
vn -0.4340 0.0416 -0.9000
vn -0.7819 -0.3866 -0.4889
vn -0.6815 -0.4194 0.5996
vn -0.4172 0.0746 0.9058
vn -0.4185 0.1793 0.8903
vn 0.1375 -0.2990 -0.9443
vn 0.1718 0.8744 0.4537
vn 0.1209 0.9396 -0.3204
vn 0.1330 -0.2732 -0.9527
vn -0.3952 -0.7479 -0.5334
vn -0.1315 -0.9136 -0.3846
vn -0.3056 0.9100 0.2802
vn -0.2479 -0.8566 0.4525
vn -0.0069 -0.8391 0.5439
vn -0.0219 -0.8234 -0.5671
vn 0.0177 -0.1672 -0.9858
vn 0.1506 -0.2370 0.9598
vn 0.1680 0.9357 -0.3103
vn 0.2791 0.8740 0.3979
vn -0.1630 -0.9161 -0.3664
vn 0.0145 0.6153 -0.7881
vn 0.0341 0.3442 0.9383
vn 0.3058 0.1634 0.9380
vn -0.2382 0.8540 -0.4626
vn -0.2008 -0.8988 0.3896
vn 0.3569 0.0772 -0.9310
vn -0.1854 0.9395 0.2881
vn -0.0649 0.9486 -0.3097
vn -0.1962 -0.9346 -0.2967
vn -0.5597 0.6060 0.5653
vn -0.1300 -0.9725 0.1934
vn 0.2151 -0.7873 0.5778
vn 0.1980 -0.7734 -0.6022
vn 0.1393 -0.9895 -0.0396
vn -0.0214 -0.1632 -0.9864
vn 0.0412 -0.2349 0.9712
vn -0.1503 0.9794 -0.1349
vn -0.6236 -0.1503 0.7671
vn -0.0580 0.5324 -0.8445
vn -0.7578 -0.2759 -0.5912
vn -0.8640 0.4320 0.2587
vn -0.2077 -0.9631 -0.1712
vn 0.1239 -0.8320 -0.5407
vn 0.0890 -0.8884 0.4503
vn -0.6161 0.6087 -0.4999
vn -0.1076 -0.9822 -0.1537
vn 0.3801 0.0216 0.9247
vn -0.1114 -0.8363 0.5369
vn -0.8770 0.4259 -0.2226
vn 0.2142 -0.2789 -0.9361
vn -0.0842 -0.6401 0.7637
vn -0.1000 -0.8295 -0.5495
vn -0.1346 -0.7827 0.6077
vn 0.2851 -0.5994 0.7479
vn -0.0594 0.8321 -0.5515
vn -0.4415 0.8832 -0.1581
vn 0.3165 0.7117 0.6272
vn -0.6891 0.4770 0.5456
vn -0.3967 -0.9171 -0.0400
vn 0.0539 0.9969 0.0567
vn -0.1758 0.7996 0.5743
vn -0.3226 -0.9435 -0.0760
vn -0.0463 0.8887 0.4562
vn -0.0303 0.8957 -0.4436
vn -0.2817 0.3117 -0.9074
vn -0.0291 0.7025 -0.7111
vn 0.2842 0.6060 -0.7429
vn 0.1840 -0.9421 0.2802
vn 0.4976 -0.7782 -0.3831
vn 0.5257 0.6880 -0.5003
vn 0.4675 0.8806 -0.0770
vn 0.1668 -0.9378 0.3044
vn 0.2048 -0.9170 -0.3423
vn -0.0576 -0.6084 0.7915
vn 0.2751 -0.5284 -0.8032
vn 0.3601 0.0395 -0.9321
vn 0.6939 0.6911 -0.2020
vn 0.2961 0.7859 0.5429
vn 0.6659 0.5842 0.4641
vn 0.4331 -0.7819 0.4483
vn 0.4572 -0.7159 -0.5277
vn 0.6043 -0.6745 0.4241
vn 0.8992 -0.1456 0.4126
vn 0.8011 -0.3052 -0.5148
vn 0.7916 0.0037 0.6111
vn 0.7574 -0.1915 -0.6243
vn 0.8406 0.2469 -0.4821
vn 0.8624 0.0037 -0.5062
vn 0.6079 0.6189 0.4974
vn 0.4599 0.2381 0.8554
vn 0.5956 -0.2697 0.7567
vn 0.1913 -0.9814 -0.0163
vn 0.5698 0.2367 -0.7870
vn 0.7392 -0.6317 0.2337
vn 0.9687 0.2473 -0.0199
vn 0.6551 -0.5252 -0.5432
vn 0.8091 -0.1259 0.5740
vn 0.7054 -0.5247 0.4765
vn 0.5071 -0.6267 0.5917
vn 0.5121 -0.1798 0.8399
vn 0.3744 -0.6325 0.6781
vn 0.3121 -0.6533 -0.6898
vn 0.8805 0.4502 0.1484
vn 0.6660 0.7299 -0.1537
vn -0.1824 0.5482 0.8162
vn 0.4155 0.9057 -0.0847
vn 0.5013 0.8581 -0.1114
vn 0.0633 0.9097 -0.4104
vn -0.4994 0.2571 -0.8274
vn 0.4846 0.6655 -0.5678
vn 0.4731 -0.2005 0.8579
vn 0.7147 0.4186 -0.5603
vn 0.8662 0.4872 -0.1107
vn 0.2251 0.9395 -0.2580
vn 0.9162 0.3996 0.0305
vn 0.9137 -0.1591 0.3740
vn 0.8531 0.5217 0.0084
vn 0.7031 0.6673 -0.2456
vn 0.8331 -0.3069 -0.4601
vn 0.8470 0.4384 -0.3006
vn -0.1556 0.7410 -0.6532
vn 0.9042 -0.3609 0.2285
vn 0.8260 -0.3579 0.4355
vn 0.9508 -0.3098 0.0083
vn 0.9252 -0.3776 0.0377
vn 0.7388 -0.4556 -0.4966
vn 0.9498 0.0406 0.3101
vn 0.9019 -0.4317 0.0174
vn 0.9417 0.0522 -0.3322
vn -0.3318 -0.1371 0.9333
vn 0.8393 0.5267 -0.1350
vn 0.9417 -0.1085 0.3185
vn -0.2915 0.4595 0.8389
vn -0.3916 0.0982 -0.9149
vn 0.9042 -0.3608 0.2285
vn 0.9508 -0.3097 0.0084
vn -0.1645 -0.7341 0.6588
vn 0.9042 -0.3608 0.2286
vn 0.0236 -0.5886 0.8081
vn -0.8478 -0.2289 0.4784
vn -0.9799 0.1516 -0.1299
vn -0.1718 -0.7444 -0.6453
vn 0.9445 -0.3261 -0.0401
vn 0.8682 -0.4843 -0.1084
vn -0.8023 0.2563 0.5391
vn -0.2926 0.2443 0.9245
vn -0.4871 0.1078 0.8667
vn -0.4271 0.1268 -0.8953
vn -0.2088 0.7783 0.5921
vn -0.7338 0.6227 0.2714
vn -0.5395 0.1678 0.8251
vn -0.1742 0.3564 0.9179
vn 0.8568 0.5156 -0.0029
vn -0.3912 -0.1650 0.9054
vn -0.5892 -0.3742 -0.7161
vn -0.5497 0.1562 -0.8206
vn -0.4285 0.6282 -0.6494
vn -0.1343 0.6731 -0.7273
vn 0.0602 0.9881 0.1418
vn -0.2319 0.6751 0.7004
vn -0.0600 -0.9982 0.0053
vn -0.0600 -0.9982 0.0052
vn 0.2225 0.8928 -0.3916
vn -0.5277 -0.3906 -0.7543
vn -0.2589 0.4502 -0.8546
vn -0.2331 0.3092 -0.9220
vn -0.5508 0.8247 -0.1281
vn -0.3816 0.9168 -0.1177
vn -0.1168 0.9855 -0.1232
vn -0.1161 0.7357 0.6673
vn -0.8378 0.4996 0.2203
vn -0.1168 0.9855 -0.1233
vn -0.8393 0.4988 -0.2161
vn -0.1319 0.7490 -0.6493
vn -0.9094 0.4156 -0.0148
vn -0.5001 0.7087 0.4976
vn -0.7847 0.4863 -0.3843
vn -0.6861 0.6649 0.2951
vn -0.5281 0.8442 -0.0918
vn -0.2031 0.1526 -0.9672
vn -0.0745 0.7855 0.6143
vn 0.2653 0.7257 -0.6348
vn 0.0488 0.5193 0.8532
vn -0.1967 0.2903 -0.9365
vn -0.2192 0.2999 0.9284
vn -0.3369 -0.6026 -0.7235
vn -0.5512 -0.3858 -0.7399
vn -0.6570 -0.1849 -0.7309
vn -0.6123 -0.2060 0.7633
vn -0.5153 -0.3880 0.7641
vn -0.3456 -0.6825 0.6440
vn 0.7456 0.5541 -0.3704
vn -0.9736 0.0342 0.2258
vn -0.4536 0.8875 0.0816
vn -0.1774 0.6180 0.7659
vn -0.2784 -0.9575 0.0749
vn -0.6325 0.2098 0.7456
vn 0.0593 -0.7407 0.6692
vn -0.9925 0.1202 0.0238
vn -0.8396 -0.4761 -0.2616
vn -0.3330 -0.7668 0.5487
vn 0.1082 -0.9728 -0.2048
vn 0.6342 -0.7524 -0.1780
vn -0.4819 0.5325 0.6959
vn -0.0056 -0.9099 -0.4148
vn -0.3752 -0.3116 -0.8730
vn -0.9024 0.3460 -0.2570
vn -0.8873 0.1116 -0.4474
vn -0.8187 -0.0010 0.5742
vn -0.8581 0.4422 0.2608
vn -0.2659 -0.0585 0.9622
vn -0.3368 -0.6026 -0.7234
vn -0.0055 -0.9099 -0.4148
vn -0.5512 -0.3858 -0.7398
vn -0.8284 0.0397 -0.5587
vn -0.9610 -0.2765 0.0086
vn -0.8505 -0.0090 0.5260
vn -0.7058 -0.5452 -0.4523
vn -0.9941 0.0166 -0.1073
vn -0.9988 0.0326 -0.0354
vn -0.8844 0.4636 -0.0543
vn -0.4524 -0.5104 -0.7313
vn -0.8247 0.5014 -0.2616
vn -0.4157 -0.6161 0.6690
vn 0.3001 0.9534 -0.0295
vn -0.6689 -0.5665 -0.4813
vn -0.8305 0.5250 -0.1862
vn -0.6561 0.7173 0.2345
vn -0.0698 0.7331 0.6766
vn 0.6750 0.5898 -0.4432
vn 0.1416 -0.9891 0.0392
vn -0.6981 -0.6407 0.3196
vn 0.3123 -0.7478 -0.5858
vn -0.6859 0.3148 0.6561
vn -0.2696 0.6676 -0.6940
vn 0.3439 -0.0954 0.9342
vn -0.8365 0.3063 0.4543
vn -0.8340 -0.0117 0.5517
vn 0.4949 -0.6455 -0.5817
vn -0.8823 0.4586 -0.1064
vn -0.8902 0.2505 -0.3806
vn 0.4018 -0.6340 0.6607
vn -0.8344 0.4662 0.2940
vn 0.5350 0.8432 0.0530
vn 0.2135 -0.8722 0.4400
vn 0.3146 -0.5580 -0.7679
vn 0.2816 -0.0861 -0.9556
vn 0.4018 -0.6340 0.6608
vn -0.7058 -0.5452 -0.4522
vn -0.8344 0.4662 0.2939
vn -0.2402 0.4812 -0.8430
vn -0.9604 0.2784 0.0084
vn -0.5791 0.7005 0.4169
vn -0.8833 -0.2829 0.3737
vn -0.9738 0.2235 -0.0416
vn 0.3006 0.3825 0.8737
vn -0.6363 0.7702 0.0440
vn -0.9794 0.0081 0.2020
vn -0.6222 0.7820 0.0354
vn -0.9877 0.1561 -0.0055
vn -0.9693 0.2425 -0.0411
vn -0.1473 0.8165 0.5583
vn -0.9632 0.0780 0.2574
vn -0.0799 0.7545 -0.6515
vn 0.4563 -0.6246 0.6338
vn -0.1439 -0.9881 -0.0546
vn -0.6550 0.6710 0.3476
vn -0.9866 0.0272 0.1606
vn 0.2943 -0.9543 -0.0513
vn 0.5969 -0.7908 -0.1356
vn 0.5170 -0.3762 -0.7689
vn 0.6685 0.3819 -0.6382
vn 0.3596 0.6499 -0.6696
vn 0.6650 0.3371 0.6664
vn 0.0889 0.9944 -0.0564
vn 0.6056 0.7895 0.0998
vn 0.6176 0.7812 -0.0913
vn 0.1255 0.9919 0.0188
vn 0.7735 -0.6317 -0.0518
vn 0.9969 0.0108 0.0774
vn 0.9973 0.0590 -0.0437
vt 0.165963 0.380810
vt 0.174868 0.381897
vt 0.238273 0.380774
vt 0.219386 0.382066
vt 0.159576 0.380892
vt 0.133506 0.382057
vt 0.080021 0.381017
vt 0.064867 0.381806
vt 0.239843 0.381777
vt 0.220217 0.381022
vt 0.068969 0.381372
vt 0.054762 0.381436
vt 0.315404 0.381767
vt 0.296955 0.381035
vt 0.088521 0.381724
vt 0.072630 0.381320
vt 0.316747 0.380970
vt 0.296653 0.381864
vt 0.344586 0.381405
vt 0.324803 0.381413
vt 0.025583 0.381342
vt 0.161363 0.380165
vt 0.064757 0.409040
vt 0.041134 0.426168
vt 0.138924 0.381559
vt 0.036557 0.381602
vt 0.020199 0.417246
vt 0.039681 0.383020
vt 0.043742 0.382884
vt 0.429645 0.055929
vt 0.427342 0.055784
vt 0.436836 0.055880
vt 0.298645 0.378152
vt 0.225447 0.439556
vt 0.235936 0.432105
vt 0.312018 0.381767
vt 0.145296 0.378207
vt 0.319918 0.438453
vt 0.328993 0.380012
vt 0.430551 0.056060
vt 0.429659 0.055995
vt 0.433733 0.056122
vt 0.426588 0.055993
vt 0.418626 0.055696
vt 0.340183 0.381965
vt 0.316372 0.436605
vt 0.302685 0.381842
vt 0.313373 0.440949
vt 0.316448 0.439466
vt 0.387364 0.055998
vt 0.242560 0.454138
vt 0.148557 0.381157
vt 0.316448 0.438876
vt 0.411967 0.056052
vt 0.391592 0.056008
vt 0.150296 0.454346
vt 0.126329 0.450519
vt 0.146737 0.455865
vt 0.391996 0.056008
vt 0.392387 0.056008
vt 0.400727 0.056009
vt 0.133199 0.455733
vt 0.390611 0.055971
vt 0.321235 0.502761
vt 0.037002 0.005441
vt 0.138002 0.009563
vt 0.088405 0.058446
vt 0.222733 0.104004
vt 0.193147 0.012798
vt 0.149064 0.016259
vt 0.042796 0.007206
vt 0.053140 0.050538
vt 0.135792 0.009166
vt 0.176801 0.006923
vt 0.207419 0.006622
vt 0.161683 0.103348
vt 0.580080 0.529658
vt 0.579917 0.529567
vt 0.579932 0.529408
vt 0.153682 0.077628
vt 0.144830 0.058899
vt 0.214707 0.058398
vt 0.369572 0.008393
vt 0.359954 0.067561
vt 0.380897 0.015941
vt 0.219195 0.520757
vt 0.233352 0.473357
vt 0.256260 0.022814
vt 0.166870 0.021088
vt 0.147273 0.042851
vt 0.642114 0.588352
vt 0.621141 0.610691
vt 0.612085 0.588063
vt 0.347981 0.038709
vt 0.322098 0.065788
vt 0.323426 0.009357
vt 0.277463 0.058965
vt 0.266366 0.083855
vt 0.285215 0.012332
vt 0.281942 0.058975
vt 0.147705 0.433202
vt 0.087201 0.370662
vt 0.206698 0.357150
vt 0.070973 0.480542
vt 0.095045 0.452037
vt 0.060439 0.427964
vt 0.274820 0.010297
vt 0.272811 0.036331
vt 0.232711 0.009776
vt 0.323309 0.009816
vt 0.218941 0.055621
vt 0.207348 0.006628
vt 0.252149 0.009776
vt 0.216585 0.078139
vt 0.097340 0.478941
vt 0.096025 0.452349
vt 0.098506 0.477044
vt 0.061535 0.429199
vt 0.057413 0.379764
vt 0.207186 0.084389
vt 0.733549 0.598974
vt 0.750107 0.590192
vt 0.715331 0.590113
vt 0.741521 0.731965
vt 0.733572 0.739890
vt 0.732323 0.731841
vt 0.265417 0.050981
vt 0.042259 0.043738
vt 0.282147 0.043027
vt 0.285132 0.012328
vt 0.193582 0.014363
vt 0.282374 0.043027
vt 0.076136 0.431089
vt 0.104031 0.076219
vt 0.361292 0.068576
vt 0.323495 0.009816
vt 0.322168 0.065788
vt 0.212122 0.050943
vt 0.260151 0.067454
vt 0.285663 0.056993
vt 0.272742 0.036331
vt 0.367560 0.106741
vt 0.285732 0.056993
vt 0.221400 0.102615
vt 0.048566 0.078860
vt 0.290139 0.091841
vt 0.129155 0.163566
vt 0.084362 0.220898
vt 0.298683 0.094427
vt 0.054612 0.140916
vt 0.365425 0.107551
vt 0.376897 0.154509
vt 0.038653 0.162840
vt 0.149780 0.197925
vt 0.268408 0.158079
vt 0.279179 0.179961
vt 0.369946 0.180930
vt 0.036396 0.189807
vt 0.076649 0.203672
vt 0.326181 0.160723
vt 0.212121 0.197917
vt 0.210290 0.186727
vt 0.213120 0.208731
vt 0.326943 0.202220
vt 0.212954 0.170790
vt 0.035515 0.176919
vt 0.374381 0.207118
vt 0.378338 0.176719
vt 0.374314 0.207043
vt 0.313683 0.267657
vt 0.283409 0.251125
vt 0.025210 0.244317
vt 0.004435 0.253961
vt 0.149538 0.320915
vt 0.113405 0.270576
vt 0.066422 0.276338
vt 0.064708 0.286853
vt 0.389185 0.199025
vt 0.028130 0.233070
vt 0.025962 0.244272
vt 0.027318 0.194308
vt 0.340285 0.260052
vt 0.386598 0.263641
vt 0.340280 0.260019
vt 0.374291 0.207018
vt 0.213697 0.170086
vt 0.214778 0.235867
vt 0.217541 0.253524
vt 0.214185 0.298278
vt 0.012722 0.255424
vt 0.010570 0.285645
vt 0.013323 0.276966
vt 0.206273 0.327670
vt 0.387967 0.218617
vt 0.370165 0.231012
vt 0.368731 0.255576
vt 0.380994 0.249114
vt 0.336677 0.277243
vt 0.340284 0.260022
vt 0.340301 0.260011
vt 0.386580 0.263662
vt 0.336670 0.277256
vt 0.012959 0.277543
vt 0.359975 0.286494
vt 0.336706 0.277300
vt 0.386588 0.263638
vt 0.287023 0.300730
vt 0.321205 0.312686
vt 0.382997 0.298535
vt 0.360454 0.310327
vt 0.336668 0.277234
vt 0.359989 0.286494
vt 0.360498 0.310347
vt 0.336682 0.277264
vt 0.659462 0.391980
vt 0.511044 0.389820
vt 0.564533 0.346253
vt 0.570031 0.345216
vt 0.507581 0.364671
vt 0.673725 0.392382
vt 0.288786 0.321545
vt 0.667031 0.372062
vt 0.723635 0.403264
vt 0.882108 0.354201
vt 0.753533 0.359652
vt 0.665358 0.395829
vt 0.360353 0.310279
vt 0.887523 0.382656
vt 0.875138 0.382032
vt 0.867674 0.352768
vt 0.877037 0.377547
vt 0.731896 0.377919
vt 0.320967 0.312356
vt 0.896070 0.382212
vt 0.120787 0.322887
vt 0.215312 0.298779
vt 0.670412 0.427567
vt 0.897281 0.420821
vt 0.884276 0.416121
vt 0.676373 0.418362
vt 0.899913 0.407095
vt 0.884592 0.415792
vt 0.288785 0.321546
vt 0.206406 0.326584
vt 0.217530 0.253516
vt 0.722497 0.417669
vt 0.712842 0.410250
vt 0.501829 0.438962
vt 0.453809 0.445771
vt 0.474865 0.418767
vt 0.443716 0.417749
vt 0.446347 0.417583
vt 0.466213 0.417677
vt 0.450903 0.440296
vt 0.497172 0.439080
vt 0.009856 0.313092
vt 0.010111 0.317943
vt 0.916252 0.425140
vt 0.930291 0.393980
vt 0.968494 0.395268
vt 0.887195 0.434326
vt 0.897852 0.442926
vt 0.940763 0.390805
vt 0.883906 0.427676
vt 0.960472 0.421035
vt 0.967854 0.395653
vt 0.961303 0.414678
vt 0.899583 0.439463
vt 0.056336 0.320248
vt 0.292894 0.354284
vt 0.332530 0.295612
vt 0.284042 0.302024
vt 0.332692 0.295612
vt 0.380744 0.352677
vt 0.383146 0.298066
vt 0.360125 0.310491
vt 0.374683 0.355197
vt 0.320781 0.312098
vt 0.212677 0.354458
vt 0.214418 0.298768
vt 0.320900 0.312263
vt 0.289795 0.355629
vt 0.206447 0.326392
vt 0.209699 0.356717
vt 0.006211 0.317943
vt 0.674663 0.491713
vt 0.884427 0.457235
vt 0.293046 0.354284
vt 0.663408 0.489547
vt 0.218672 0.351651
vt 0.214185 0.298288
vt 0.119897 0.324037
vt 0.823390 0.485095
vt 0.876581 0.487808
vt 0.289437 0.355672
vt 0.159247 0.345097
vt 0.206415 0.326735
vt 0.208030 0.360042
vt 0.883556 0.489987
vt 0.526299 0.491230
vt 0.517225 0.489100
vt 0.718070 0.480170
vt 0.713005 0.485373
vt 0.884388 0.489230
vt 0.855153 0.506261
vt 0.713841 0.530738
vt 0.636860 0.505256
vt 0.246315 0.515682
vt 0.385293 0.519877
vt 0.251056 0.531675
vt 0.930328 0.506170
vt 0.870837 0.535883
vt 0.106951 0.518927
vt 0.826807 0.634304
vt 0.961773 0.607112
vt 0.988075 0.633159
vt 0.544707 0.531929
vt 0.485210 0.505759
vt 0.056808 0.519008
vt 0.013082 0.532111
vt 0.009531 0.520233
vt 0.490987 0.515698
vt 0.498518 0.548871
vt 0.451020 0.517413
vt 0.458065 0.543883
vt 0.032247 0.545592
vt 0.079689 0.895205
vt 0.013441 0.913735
vt 0.013398 0.902370
vt 0.087125 0.896328
vt 0.008138 0.927698
vt 0.010049 0.902638
vt 0.965359 0.527108
vt 0.007777 0.970064
vt 0.063091 0.983600
vt 0.008317 0.983257
vt 0.480014 0.541526
vt 0.010083 0.981763
vt 0.009311 0.964841
vt 0.086651 0.978851
vt 0.073036 0.943267
vt 0.090513 0.908788
vt 0.596668 0.976840
vt 0.781830 0.926313
vt 0.525383 0.916376
vt 0.526373 0.904445
vt 0.745041 0.936075
vt 0.535337 0.970359
vt 0.015625 0.564183
vt 0.317519 0.968266
vt 0.253029 0.907730
vt 0.961820 0.555640
vt 0.672736 0.899442
vt 0.165738 0.904368
vt 0.588758 0.985607
vt 0.643907 0.892965
vt 0.575479 0.677610
vt 0.856553 0.676147
vt 0.036263 0.661747
vt 0.453278 0.665887
vt 0.155638 0.699363
vt 0.352654 0.741279
vt 0.288898 0.900462
vt 0.060788 0.707551
vt 0.452472 0.672898
vt 0.265276 0.938118
vt 0.755039 0.974388
vt 0.229973 0.975649
vt 0.279483 0.928012
vt 0.756371 0.978744
vt 0.292644 0.978032
vt 0.807174 0.877382
vt 0.269452 0.893967
vt 0.747087 0.888721
vt 0.287495 0.910612
vt 0.236142 0.967210
vt 0.715835 0.754996
vt 0.951422 0.666618
vt 0.483210 0.670554
vt 0.822985 0.972965
vt 0.959457 0.900097
vt 0.923024 0.962378
vt 0.916693 0.908688
vt 0.913055 0.986724
vt 0.356707 0.891233
vt 0.431744 0.978550
vt 0.908075 0.875958
vt 0.032132 0.690610
vt 0.897887 0.872871
vt 0.490672 0.941031
vt 0.369580 0.978118
vt 0.372170 0.982385
vt 0.017991 0.680847
vt 0.491415 0.668829
vt 0.943101 0.714891
vt 0.488690 0.722133
vt 0.485357 0.913364
vt 0.338500 0.892250
vt 0.967976 0.971427
vt 0.463610 0.745560
vt 0.498694 0.698673
vt 0.945317 0.873986
vt 0.973667 0.994383
vt 0.471782 0.710661
vt 0.400030 0.892435
vt 0.400021 0.977534
vt 0.038614 0.722179
vt 0.068474 0.711448
vt 0.450983 0.899538
vt 0.505801 0.759350
vt 0.964532 0.768971
vt 0.022878 0.761656
vt 0.243810 0.780699
vt 0.677972 0.758330
vt 0.803604 0.760644
vt 0.458870 0.892842
vt 0.460860 0.958087
vt 0.470280 0.926511
vt 0.150041 0.790813
vt 0.453548 0.975937
vt 0.477248 0.780079
vt 0.625732 0.794211
vt 0.858458 0.804081
vt 0.490050 0.781719
vt 0.563205 0.799100
vt 0.928680 0.799100
vt 0.496303 0.789521
vt 0.987585 0.789521
vt 0.008729 0.797929
vt 0.044815 0.798727
vt 0.367704 0.805885
vt 0.373937 0.797617
vt 0.620622 0.808881
vt 0.714925 0.839086
vt 0.121207 0.794926
vt 0.457260 0.811290
vt 0.204779 0.783534
vt 0.846834 0.832231
vt 0.649172 0.830877
vt 0.629305 0.816228
vt 0.642788 0.834372
vt 0.667206 0.834184
vt 0.822795 0.834859
vt 0.318978 0.799166
vt 0.865182 0.008917
vt 0.929442 0.035325
vt 0.933175 0.005856
vt 0.830718 0.006299
vt 0.929682 0.004082
vt 0.819995 0.058491
vt 0.162139 0.809037
vt 0.642828 0.834401
vt 0.137597 0.806001
vt 0.608539 0.010080
vt 0.662918 0.009866
vt 0.441425 0.860740
vt 0.481755 0.820659
vt 0.451550 0.830821
vt 0.486526 0.838938
vt 0.506291 0.840167
vt 0.474801 0.864506
vt 0.934871 0.043269
vt 0.517991 0.822047
vt 0.529369 0.871685
vt 0.561095 0.825677
vt 0.546486 0.830480
vt 0.516308 0.865748
vt 0.487162 0.867376
vt 0.591212 0.867422
vt 0.495429 0.866171
vt 0.557715 0.865394
vt 0.592809 0.127881
vt 0.605479 0.010193
vt 0.544845 0.036641
vt 0.681113 0.057838
vt 0.706119 0.105193
vt 0.513564 0.039759
vt 0.465605 0.033390
vt 0.503451 0.110769
vt 0.503022 0.110749
vt 0.936274 0.046327
vt 0.948272 0.056180
vt 0.535341 0.112360
vt 0.466147 0.034160
vt 0.660956 0.013151
vt 0.950662 0.056216
vt 0.930532 0.036513
vt 0.692280 0.132368
vt 0.740425 0.111535
vt 0.870876 0.118520
vt 0.949068 0.056955
vt 0.801235 0.079157
vt 0.691664 0.130941
vt 0.605250 0.010665
vt 0.599709 0.118175
vt 0.662017 0.121376
vt 0.737155 0.112557
vt 0.949392 0.057601
vt 0.882626 0.119738
vt 0.945078 0.104221
vt 0.680881 0.058569
vt 0.471242 0.107359
vt 0.474595 0.108435
vt 0.947731 0.110068
vt 0.662349 0.121494
vt 0.694535 0.135070
vt 0.939731 0.117649
vt 0.951492 0.120142
vt 0.523251 0.328066
vt 0.499230 0.327266
vt 0.523212 0.328142
vt 0.540161 0.328398
vt 0.947428 0.147236
vt 0.945258 0.118722
vt 0.946406 0.120313
vt 0.944119 0.154004
vt 0.694309 0.135896
vt 0.912290 0.175680
vt 0.944094 0.169824
vt 0.814829 0.188960
vt 0.776168 0.204348
vt 0.691007 0.133030
vt 0.582702 0.122843
vt 0.595077 0.121641
vt 0.585121 0.120282
vt 0.578757 0.121400
vt 0.576908 0.112777
vt 0.557845 0.117701
vt 0.064303 0.677449
vt 0.064632 0.677242
vt 0.065506 0.677662
vt 0.944837 0.170459
vt 0.471515 0.108171
vt 0.468821 0.113140
vt 0.502543 0.111496
vt 0.066074 0.677242
vt 0.066481 0.677385
vt 0.591412 0.125420
vt 0.504243 0.112810
vt 0.914705 0.178403
vt 0.571457 0.122401
vt 0.307563 0.823522
vt 0.271306 0.864444
vt 0.260205 0.824157
vt 0.235498 0.826289
vt 0.276234 0.868317
vt 0.304724 0.823380
vt 0.582779 0.122934
vt 0.590036 0.126038
vt 0.595074 0.121672
vt 0.066920 0.676806
vt 0.064096 0.676510
vt 0.063639 0.676759
vt 0.557462 0.117768
vt 0.576919 0.112336
vt 0.552019 0.110684
vt 0.469133 0.112422
vt 0.065380 0.677413
vt 0.271210 0.863809
vt 0.214133 0.850638
vt 0.257001 0.824887
vt 0.202165 0.841797
vt 0.945264 0.177176
vt 0.592263 0.128010
vt 0.672995 0.167407
vt 0.674808 0.168164
vt 0.940600 0.202409
vt 0.917289 0.198692
vt 0.859653 0.291761
vt 0.892349 0.237073
vt 0.811774 0.217968
vt 0.063599 0.675453
vt 0.799097 0.189419
vt 0.647670 0.262902
vt 0.661882 0.165084
vt 0.759211 0.206814
vt 0.225770 0.866974
vt 0.066566 0.676122
vt 0.067030 0.675754
vt 0.214689 0.865920
vt 0.276288 0.868106
vt 0.822567 0.220990
vt 0.760677 0.200602
vt 0.664461 0.177809
vt 0.601424 0.102275
vt 0.594983 0.095541
vt 0.651842 0.122750
vt 0.947849 0.213000
vt 0.064531 0.674827
vt 0.064194 0.674467
vt 0.066158 0.674804
vt 0.066477 0.674534
vt 0.558191 0.133069
vt 0.065314 0.674160
vt 0.065461 0.674546
vt 0.065208 0.674546
vt 0.821181 0.217052
vt 0.907379 0.194833
vt 0.815143 0.210131
vt 0.907387 0.194936
vt 0.693546 0.303935
vt 0.906725 0.239948
vt 0.947094 0.203726
vt 0.947826 0.213753
vt 0.791581 0.333548
vt 0.739552 0.342692
vt 0.681147 0.320083
vt 0.561060 0.289584
vt 0.532081 0.126281
vt 0.544286 0.276427
vt 0.482188 0.120819
vt 0.488052 0.269937
vt 0.490882 0.269194
vt 0.488086 0.123578
vt 0.702318 0.352663
vt 0.542922 0.322437
vt 0.574586 0.323594
s 1
f 378/1/1 376/2/2 380/3/3
f 496/4/4 495/5/5 498/6/6
f 378/1/1 406/7/7 376/2/2
f 495/5/5 515/8/8 498/6/6
f 379/9/9 380/3/3 376/2/2
f 495/5/5 496/4/4 499/10/10
f 476/11/11 376/2/2 406/7/7
f 515/8/8 495/5/5 513/12/12
f 379/9/9 392/13/13 380/3/3
f 496/4/4 519/14/14 499/10/10
f 404/15/15 376/2/2 476/11/11
f 513/12/12 495/5/5 511/16/16
f 394/17/17 380/3/3 392/13/13
f 519/14/14 496/4/4 521/18/18
f 424/19/19 394/17/17 392/13/13
f 519/14/14 521/18/18 550/20/20
f 405/21/21 377/22/22 407/23/23
f 514/24/24 497/25/25 512/26/26
f 475/27/27 403/28/28 405/21/21
f 512/26/26 510/29/29 514/24/24
f 493/30/30 558/31/31 402/32/32
f 393/33/33 435/34/34 377/22/22
f 497/25/25 517/35/35 522/36/36
f 375/37/37 440/38/38 391/39/39
f 405/21/21 407/23/23 475/27/27
f 561/40/40 557/41/41 544/42/42
f 546/43/43 557/41/41 561/40/40
f 493/30/30 400/44/44 558/31/31
f 551/45/45 553/46/46 520/47/47
f 438/48/48 393/33/33 391/39/39
f 551/45/20 522/36/49 524/49/50
f 400/44/44 493/30/30 491/50/51
f 407/23/23 377/22/22 435/34/34
f 520/47/52 527/51/53 494/52/54
f 393/33/33 438/48/48 435/34/34
f 440/38/38 438/48/48 391/39/39
f 551/45/45 525/53/55 553/46/46
f 517/35/35 525/53/50 522/36/36
f 493/30/30 488/54/56 491/50/51
f 546/43/43 541/55/57 557/41/41
f 497/25/25 514/24/24 509/56/58
f 403/28/28 382/57/59 375/37/37
f 494/52/54 501/58/60 510/29/29
f 541/55/57 546/43/43 563/59/61
f 509/56/58 517/35/35 497/25/25
f 563/59/61 546/43/43 532/60/62
f 382/57/59 403/28/28 475/27/27
f 514/24/24 510/29/29 501/58/60
f 491/50/51 488/54/56 559/61/63
f 407/23/23 435/34/34 384/62/64
f 407/23/23 384/62/64 475/27/27
f 491/50/51 559/61/63 485/63/65
f 375/37/37 396/64/66 440/38/38
f 545/65/67 542/66/68 457/67/69
f 411/68/70 492/69/71 401/70/72
f 501/58/60 509/56/58 514/24/24
f 475/27/27 384/62/64 382/57/59
f 489/71/73 479/72/74 399/73/75
f 543/74/76 556/75/77 458/76/78
f 443/77/79 441/78/80 397/79/81
f 526/80/82 552/81/83 523/82/84
f 484/83/85 480/84/86 490/85/51
f 375/37/37 382/57/59 386/86/87
f 506/87/88 501/58/60 494/52/54
f 437/88/89 442/89/90 395/90/91
f 439/91/92 390/92/93 436/93/94
f 549/94/95 536/95/96 530/96/97
f 518/97/98 504/98/99 523/82/84
f 487/99/100 422/100/101 484/83/85
f 508/101/102 503/102/103 516/103/104
f 383/104/105 434/105/106 388/106/107
f 562/107/108 565/108/109 539/109/110
f 529/110/111 565/108/109 562/107/108
f 482/111/112 492/69/71 411/68/70
f 386/86/87 396/64/66 375/37/37
f 494/52/54 527/51/53 506/87/88
f 555/112/113 540/113/114 455/114/115
f 500/115/116 505/116/117 567/117/118
f 385/118/119 381/119/120 383/104/105
f 554/120/121 526/80/82 523/82/84
f 387/121/122 483/122/123 398/123/81
f 528/124/124 533/125/97 507/126/125
f 395/90/91 389/127/126 437/88/89
f 523/82/84 504/98/99 554/120/121
f 545/65/67 457/67/69 547/128/127
f 477/129/128 486/130/129 481/131/130
f 480/84/86 484/83/85 422/100/101
f 487/99/100 478/132/131 422/100/101
f 502/133/132 567/117/118 505/116/117
f 458/76/78 542/66/68 543/74/76
f 383/104/105 388/106/107 385/118/119
f 412/134/133 401/70/72 399/73/75
f 549/94/95 548/135/134 536/95/96
f 531/136/135 537/137/136 565/108/109
f 479/72/74 412/134/133 399/73/75
f 458/76/78 556/75/77 456/138/137
f 540/113/114 565/108/109 538/139/138
f 534/140/139 564/141/109 536/95/96
f 455/114/115 540/113/114 538/139/138
f 409/142/140 480/84/86 422/100/101
f 565/108/109 535/143/141 538/139/138
f 477/129/128 481/131/130 410/144/142
f 479/72/74 408/145/143 412/134/133
f 560/146/144 409/142/140 422/100/101
f 422/100/101 477/129/128 410/144/142
f 411/68/70 401/70/72 413/147/145
f 463/148/146 457/67/69 542/66/68
f 469/149/147 534/140/139 536/95/96
f 560/146/144 422/100/101 410/144/142
f 457/67/69 453/150/148 547/128/127
f 548/135/134 454/151/149 536/95/96
f 535/143/141 469/149/147 538/139/138
f 401/70/72 412/134/133 413/147/145
f 463/148/146 542/66/68 458/76/78
f 455/114/115 538/139/138 469/149/147
f 469/149/147 536/95/96 454/151/149
f 560/146/144 415/152/150 409/142/140
f 408/145/143 423/153/151 412/134/133
f 456/138/137 464/154/152 458/76/78
f 371/155/153 560/146/144 410/144/142
f 463/148/146 458/76/78 464/154/152
f 455/114/115 469/149/147 468/156/154
f 469/149/147 454/151/149 460/157/155
f 457/67/69 459/158/156 453/150/148
f 412/134/133 419/159/157 413/147/145
f 368/160/158 415/152/150 560/146/144
f 464/154/152 456/138/137 461/161/159
f 371/155/153 368/160/158 560/146/144
f 417/162/160 411/68/70 413/147/145
f 468/156/154 462/163/161 455/114/115
f 469/149/147 460/157/155 566/164/162
f 410/144/142 416/165/163 371/155/153
f 419/159/157 412/134/133 423/153/151
f 459/158/156 457/67/69 463/148/146
f 469/149/147 566/164/162 468/156/154
f 423/153/151 414/166/164 419/159/157
f 460/157/155 467/167/165 566/164/162
f 421/168/166 415/152/150 368/160/158
f 566/164/162 466/169/167 445/170/168
f 566/164/162 448/171/169 468/156/154
f 419/159/157 414/166/164 426/172/170
f 459/158/156 463/148/146 470/173/171
f 462/163/161 468/156/154 448/171/169
f 461/161/159 8/174/172 464/154/152
f 413/147/145 370/175/173 417/162/160
f 464/154/152 444/176/174 463/148/146
f 419/159/157 367/177/175 413/147/145
f 421/168/166 368/160/158 374/178/176
f 372/179/177 427/180/178 420/181/179
f 451/182/180 445/170/168 466/169/167
f 474/183/181 449/184/182 465/185/183
f 448/171/169 566/164/162 445/170/168
f 418/186/184 369/187/185 371/155/153
f 448/171/169 447/188/186 462/163/161
f 169/189/187 417/162/160 370/175/173
f 444/176/174 464/154/152 8/174/172
f 370/175/173 413/147/145 367/177/175
f 471/190/188 463/148/146 430/191/189
f 419/159/157 426/172/170 433/192/190
f 8/174/172 461/161/159 39/193/191
f 368/160/158 572/194/192 374/178/176
f 373/195/193 570/196/194 428/197/195
f 575/198/196 445/170/197 450/199/180
f 452/200/198 472/201/199 574/202/196
f 444/176/174 430/191/189 463/148/146
f 367/177/175 419/159/157 432/203/200
f 568/204/201 577/205/202 473/206/203
f 174/207/204 368/160/158 371/155/153
f 445/170/168 34/208/205 448/171/169
f 368/160/158 29/209/206 572/194/192
f 27/210/207 445/170/208 573/211/202
f 174/207/204 371/155/153 369/187/185
f 569/212/201 28/213/209 576/214/196
f 137/215/210 126/216/211 140/217/212
f 353/218/213 338/219/214 347/220/215
f 447/188/186 448/171/169 37/221/216
f 353/218/213 347/220/215 348/222/217
f 346/223/218 341/224/219 350/225/220
f 137/215/210 140/217/212 139/226/221
f 29/209/206 368/160/158 174/207/204
f 445/170/168 26/227/207 34/208/205
f 124/228/222 123/229/223 141/230/224
f 341/224/219 346/223/218 340/231/225
f 123/229/223 138/232/226 141/230/224
f 37/221/216 448/171/169 33/233/205
f 340/231/225 339/234/227 341/224/219
f 370/175/173 166/235/228 169/189/187
f 369/187/185 171/236/229 174/207/204
f 119/237/230 126/216/211 137/215/210
f 340/231/225 346/223/218 336/238/231
f 122/239/232 138/232/226 123/229/223
f 347/220/215 338/219/214 333/240/233
f 339/234/227 340/231/225 337/241/234
f 125/242/235 123/229/223 124/228/222
f 35/243/236 38/244/237 446/245/238
f 334/246/239 336/238/231 346/223/218
f 138/232/226 122/239/232 120/247/240
f 126/216/211 119/237/230 118/248/241
f 344/249/242 354/250/243 351/251/244
f 131/252/245 144/253/246 134/254/247
f 335/255/248 333/240/233 338/219/214
f 444/176/174 18/256/249 430/191/189
f 432/203/200 19/257/250 367/177/175
f 354/250/243 344/249/242 335/255/248
f 118/248/241 134/254/247 144/253/246
f 130/258/251 136/259/252 133/260/253
f 342/261/254 343/262/255 352/263/256
f 136/259/252 130/258/251 129/264/257
f 343/262/255 345/265/258 352/263/256
f 132/266/259 135/267/260 128/268/261
f 370/175/173 367/177/175 164/269/262
f 159/270/263 172/271/264 175/272/265
f 173/273/266 23/274/267 30/275/207
f 25/276/207 22/277/267 31/278/205
f 161/279/268 175/272/265 170/280/269
f 36/243/236 32/281/205 15/282/270
f 40/283/271 36/243/272 5/284/273
f 18/256/249 444/176/174 8/174/172
f 164/269/262 367/177/175 17/285/274
f 333/240/233 335/255/248 279/286/275
f 130/258/251 127/287/276 129/264/257
f 164/269/262 166/235/228 370/175/173
f 335/255/248 344/249/242 279/286/275
f 173/273/266 160/288/277 23/274/267
f 159/270/263 175/272/265 161/279/268
f 115/289/278 118/248/241 119/237/230
f 32/281/205 22/277/267 15/282/270
f 115/289/278 134/254/247 118/248/241
f 162/290/279 169/291/280 165/292/281
f 108/293/282 122/239/232 129/264/257
f 120/247/240 122/239/232 108/293/282
f 342/261/254 336/238/231 283/294/283
f 283/294/283 336/238/231 334/246/239
f 5/284/273 36/243/272 14/295/270
f 11/296/284 39/297/285 4/298/286
f 127/287/276 108/293/282 129/264/257
f 112/299/287 128/268/261 135/267/260
f 342/261/254 283/294/283 343/262/255
f 345/265/258 343/262/255 283/294/283
f 279/286/275 344/249/242 282/300/288
f 110/301/289 134/254/247 115/289/278
f 116/302/290 120/247/240 108/293/282
f 283/294/283 334/246/239 280/303/291
f 127/287/276 113/304/292 108/293/282
f 9/305/293 16/306/294 20/307/295
f 21/308/296 156/309/297 24/310/298
f 12/311/299 7/312/300 9/305/293
f 24/310/298 13/313/301 21/308/296
f 111/314/302 145/315/303 117/316/304
f 20/307/295 157/317/305 167/318/306
f 3/319/307 1/320/308 10/321/309
f 168/322/310 177/323/311 163/324/312
f 158/325/313 156/309/297 163/324/312
f 3/319/307 13/313/301 6/326/314
f 103/327/315 105/328/316 109/329/317
f 272/330/318 274/331/319 278/332/320
f 9/305/293 7/312/300 16/306/294
f 16/306/294 157/317/305 20/307/295
f 12/311/299 2/333/321 7/312/300
f 99/334/322 100/335/323 114/336/324
f 157/317/305 176/337/325 167/318/306
f 281/338/326 268/339/327 269/340/328
f 99/334/322 105/328/316 106/341/329
f 274/331/319 272/330/318 271/342/330
f 163/324/312 177/323/311 158/325/313
f 6/326/314 1/320/308 3/319/307
f 270/343/331 267/344/332 273/345/333
f 102/346/334 91/347/335 107/348/336
f 63/349/337 1/320/308 6/326/314
f 265/350/338 269/340/328 268/339/327
f 105/328/316 103/327/315 98/351/339
f 7/312/300 2/333/321 64/352/340
f 267/344/332 276/353/341 273/345/333
f 275/354/342 271/342/330 272/330/318
f 91/347/335 104/355/343 107/348/336
f 102/346/334 101/356/344 91/347/335
f 268/339/327 274/331/319 265/350/338
f 98/351/339 106/341/329 105/328/316
f 16/306/294 237/357/345 157/317/305
f 237/357/345 176/337/325 157/317/305
f 7/312/300 50/358/346 16/306/294
f 7/312/300 64/352/340 50/358/346
f 6/326/314 62/359/347 63/349/337
f 177/323/311 253/360/348 158/325/313
f 24/310/298 53/361/349 13/313/301
f 156/309/297 238/362/350 24/310/298
f 271/342/330 275/354/342 260/363/351
f 6/326/314 13/313/301 60/364/352
f 242/365/353 156/309/297 158/325/313
f 265/350/338 274/331/319 266/366/354
f 271/342/330 266/366/354 274/331/319
f 267/344/332 270/343/331 263/367/355
f 95/368/356 100/335/323 99/334/322
f 97/369/357 106/341/329 98/351/339
f 106/341/329 97/369/357 99/334/322
f 93/370/358 104/355/343 91/347/335
f 262/371/359 269/340/328 265/350/338
f 261/372/360 276/353/341 267/344/332
f 98/351/339 103/327/315 92/373/361
f 91/347/335 101/356/344 96/374/362
f 264/375/363 271/342/330 260/363/351
f 266/366/354 271/342/330 264/375/363
f 95/368/356 99/334/322 94/376/364
f 58/377/365 237/357/345 16/306/294
f 16/306/294 50/358/346 58/377/365
f 94/376/364 99/334/322 97/369/357
f 64/352/340 55/378/366 50/358/346
f 238/362/350 53/361/349 24/310/298
f 237/357/345 244/379/367 176/337/325
f 13/313/301 53/361/349 60/364/352
f 242/365/353 238/362/350 156/309/297
f 60/364/352 62/359/347 6/326/314
f 158/325/313 253/360/348 242/365/353
f 277/380/368 267/344/332 263/367/355
f 96/374/362 85/381/369 91/347/335
f 277/380/368 285/382/370 267/344/332
f 267/344/332 286/383/371 261/372/360
f 91/347/335 87/384/372 93/370/358
f 260/363/351 365/385/373 264/375/363
f 94/376/364 78/386/374 95/368/356
f 85/381/369 96/374/362 84/387/375
f 91/347/335 85/381/369 87/384/372
f 285/382/370 286/383/371 267/344/332
f 56/388/376 62/359/347 60/364/352
f 366/389/377 261/372/360 286/383/371
f 258/390/378 266/366/354 264/375/363
f 78/386/374 83/391/379 95/368/356
f 265/350/338 266/366/354 258/390/378
f 284/392/380 262/371/359 265/350/338
f 56/388/376 54/393/381 62/359/347
f 253/360/348 243/394/382 242/365/353
f 48/395/383 50/358/346 55/378/366
f 78/386/374 94/376/364 97/369/357
f 244/379/367 237/357/345 241/396/384
f 264/375/363 365/385/373 287/397/385
f 86/398/386 98/351/339 92/373/361
f 258/390/378 264/375/363 287/397/385
f 57/399/387 87/384/372 85/381/369
f 242/365/353 252/400/388 238/362/350
f 243/394/382 291/401/389 242/365/353
f 366/389/377 286/383/371 290/402/390
f 57/399/387 89/403/391 87/384/372
f 291/401/389 257/404/392 242/365/353
f 365/385/373 289/405/393 287/397/385
f 256/406/394 284/392/380 265/350/338
f 88/407/395 56/388/396 61/408/397
f 90/409/398 98/351/339 86/398/386
f 90/409/398 97/369/357 98/351/339
f 247/410/399 241/396/384 237/357/345
f 50/358/346 48/395/383 49/411/400
f 265/350/338 258/390/378 256/406/394
f 61/408/397 53/361/349 52/412/401
f 52/412/401 88/407/395 61/408/397
f 59/413/402 53/361/349 238/362/350
f 590/414/403 237/357/345 58/377/365
f 50/358/346 591/415/404 58/377/365
f 237/357/345 590/414/403 247/410/399
f 289/405/393 254/416/405 287/397/385
f 591/415/404 50/358/346 49/411/400
f 78/386/374 97/369/357 79/417/406
f 90/409/398 81/418/407 97/369/357
f 52/412/401 53/361/349 51/419/408
f 53/361/349 59/413/402 51/419/408
f 97/369/357 81/418/407 79/417/406
f 255/420/409 256/406/394 258/390/378
f 248/421/410 238/362/350 252/400/388
f 590/414/403 251/422/411 247/410/399
f 49/411/400 46/423/412 591/415/404
f 288/424/413 247/410/399 251/422/411
f 590/414/403 58/377/365 251/422/411
f 591/415/404 46/423/412 58/377/365
f 250/425/414 288/424/413 251/422/411
f 46/423/412 49/411/400 42/426/415
f 259/427/416 288/424/413 250/425/414
f 42/426/415 49/411/400 82/428/417
f 80/429/418 52/412/401 41/430/419
f 59/413/402 238/362/350 592/431/420
f 238/362/350 248/421/410 245/432/421
f 251/422/411 363/433/422 250/425/414
f 58/377/365 47/434/423 251/422/411
f 43/435/424 52/412/401 51/419/408
f 41/430/419 52/412/401 43/435/424
f 245/432/421 248/421/410 249/436/425
f 59/413/402 72/437/426 51/419/408
f 47/434/423 58/377/365 46/423/412
f 46/423/412 42/426/415 595/438/427
f 246/439/428 250/425/429 364/440/430
f 245/432/421 592/431/420 238/362/350
f 251/422/411 599/441/431 363/433/422
f 251/422/411 47/434/423 240/442/432
f 45/443/433 47/434/423 46/423/412
f 146/444/434 59/413/402 592/431/420
f 153/445/435 202/446/436 77/447/437
f 240/442/432 599/441/431 251/422/411
f 73/448/438 76/449/439 309/450/440
f 51/419/408 72/437/426 74/451/441
f 246/439/428 364/440/430 599/452/442
f 51/419/408 593/453/443 43/435/424
f 45/443/433 46/423/412 595/438/427
f 202/446/436 153/445/435 150/454/444
f 71/455/445 73/448/438 309/450/440
f 597/456/446 154/457/447 147/458/448
f 51/419/408 74/451/441 593/453/443
f 75/459/449 66/460/450 594/461/451
f 76/449/439 198/462/452 309/450/440
f 152/463/453 239/464/454 70/465/455
f 239/464/454 152/463/453 154/457/447
f 69/466/456 44/467/457 66/460/450
f 597/456/446 598/468/458 154/457/447
f 70/465/455 239/464/454 601/469/459
f 154/457/447 598/468/458 239/464/454
f 594/461/451 66/460/450 596/470/460
f 600/471/459 44/467/457 69/466/456
f 596/470/460 66/460/450 44/467/457
f 195/472/461 149/473/462 155/474/463
f 211/475/464 202/446/436 150/454/444
f 315/476/465 71/455/445 309/450/440
f 151/477/466 67/478/467 233/479/468
f 155/474/463 151/477/469 232/480/470
f 309/450/440 199/481/471 178/482/472
f 327/483/473 68/484/474 65/485/475
f 180/486/476 201/487/477 185/488/478
f 293/489/479 309/450/440 178/482/472
f 200/490/480 179/491/481 184/492/482
f 189/493/483 148/494/484 196/495/485
f 305/496/486 71/455/445 315/476/465
f 292/497/487 181/498/488 308/499/489
f 208/500/490 179/491/481 200/490/480
f 210/501/491 185/488/478 201/487/477
f 309/450/440 293/489/479 315/476/465
f 234/502/492 233/479/468 67/478/467
f 232/480/470 195/472/461 155/474/463
f 68/484/474 327/483/473 236/503/493
f 308/499/489 181/498/488 209/504/494
f 65/485/475 306/505/495 327/483/473
f 315/476/496 292/497/487 297/506/497
f 359/507/498 208/500/490 200/490/480
f 360/508/499 308/499/489 209/504/494
f 357/509/500 207/510/501 331/509/502
f 355/510/503 332/511/504 314/510/505
f 358/512/500 331/509/502 328/512/506
f 356/511/500 328/512/506 332/511/504
f 183/513/507 329/514/508 200/490/480
f 308/499/489 330/515/509 182/516/510
f 315/476/465 296/517/511 305/496/486
f 206/518/512 183/513/507 200/490/480
f 308/499/489 182/516/510 313/519/513
f 197/520/514 200/490/480 184/492/482
f 292/497/487 308/499/489 307/521/515
f 197/520/514 184/492/482 188/522/516
f 588/523/517 303/524/518 299/525/519
f 297/506/497 292/497/487 307/521/515
f 192/526/520 193/527/521 584/528/522
f 634/529/523 227/530/524 629/531/525
f 183/513/507 206/518/512 216/532/526
f 206/518/512 200/490/480 197/520/514
f 235/533/527 228/534/528 231/535/529
f 629/531/525 361/536/530 626/537/531
f 362/538/532 236/503/533 326/539/534
f 205/540/535 216/532/526 206/518/512
f 306/505/495 585/541/536 327/483/473
f 294/542/537 320/543/538 298/544/539
f 190/545/540 221/546/541 186/547/542
f 589/548/543 586/549/544 302/550/545
f 626/537/531 361/536/530 627/551/546
f 217/552/547 634/529/523 635/553/548
f 583/554/522 194/555/521 578/556/549
f 230/557/550 236/503/533 362/538/532
f 629/531/525 227/530/524 229/558/551
f 319/559/552 587/560/553 298/561/554
f 629/531/525 229/558/551 361/536/530
f 190/545/540 581/562/555 221/546/541
f 205/540/535 215/563/556 216/532/526
f 634/529/523 217/552/547 227/530/524
f 228/534/528 579/564/557 231/535/529
f 322/565/558 297/506/497 307/521/515
f 188/522/516 218/566/559 197/520/514
f 206/518/512 197/520/514 203/567/560
f 310/568/561 308/499/489 313/519/513
f 616/569/562 630/570/563 607/571/564
f 631/572/565 217/552/547 635/553/548
f 312/573/566 307/521/515 308/499/489
f 620/574/567 632/575/568 636/576/569
f 319/559/552 323/577/570 587/560/553
f 627/551/546 316/578/571 624/579/572
f 627/551/546 361/536/530 316/578/571
f 581/562/522 224/580/573 222/581/574
f 206/518/512 203/567/560 215/563/575
f 636/576/569 622/582/576 620/574/567
f 310/568/561 312/573/566 308/499/489
f 607/571/564 628/583/577 608/584/578
f 226/585/579 580/586/580 223/587/581
f 313/519/513 214/588/582 310/568/561
f 219/589/583 631/572/565 633/590/584
f 624/579/572 317/591/585 625/592/586
f 632/575/568 620/574/567 621/593/587
f 631/572/565 219/589/583 217/552/547
f 316/578/571 317/591/585 624/579/572
f 623/594/588 625/592/586 213/595/589
f 633/590/584 623/594/590 212/596/591
f 218/566/559 220/597/592 197/520/514
f 204/598/593 197/520/514 220/597/592
f 318/599/594 312/573/566 311/600/595
f 318/599/594 307/521/515 312/573/566
f 214/588/582 311/600/595 310/568/561
f 619/601/596 622/582/576 617/602/597
f 625/592/586 317/591/585 213/595/589
f 212/596/591 219/589/583 633/590/584
f 203/603/598 204/598/593 220/597/592
f 318/599/594 311/600/595 214/588/582
f 619/601/596 620/574/567 622/582/576
f 214/604/599 203/603/598 220/597/592
f 607/571/564 604/605/600 616/569/562
f 617/602/597 612/606/601 619/601/596
f 607/571/564 608/584/578 603/607/602
f 602/608/603 608/584/578 609/609/604
f 618/610/605 621/593/587 620/574/567
f 609/609/604 605/611/606 610/612/607
f 611/613/608 606/614/609 621/593/587
f 604/605/600 607/571/564 603/607/602
f 608/584/578 602/608/603 603/607/602
f 609/609/604 610/612/607 602/608/603
f 618/610/605 611/613/608 621/593/587
f 613/615/610 604/605/600 603/607/602
f 618/610/605 620/574/567 619/601/596
f 614/616/611 611/613/608 618/610/605
f 603/607/602 615/617/612 613/615/610
f 612/606/601 614/616/611 619/601/596
f 602/608/603 615/617/612 603/607/602
f 619/601/596 614/616/611 618/610/605
f 602/608/603 610/612/607 615/617/612
l 295 304
l 429 571
l 321 325
l 425 431
l 346 349
l 300 301
l 324 588
l 142 143
l 121 126
l 191 187
l 225 582
